solid WatchPlate
facet normal 0.0 1.0 0.0
outer loop
vertex 23.8907157292976 8.06944605919124 2.0
vertex 24.1495347744002 8.10352023290217 0.0
vertex 23.8907157292976 8.06944605919124 0.0
endloop
endfacet
facet normal -0.258819045102522 0.965925826289068 0.0
outer loop
vertex 24.1495347744002 8.10352023290217 0.0
vertex 23.8907157292976 8.06944605919124 2.0
vertex 24.1495347744002 8.10352023290217 2.0
endloop
endfacet
facet normal 0.25881904510252 0.965925826289069 0.0
outer loop
vertex 23.6318966841951 8.10352023290217 2.0
vertex 23.8907157292976 8.06944605919124 0.0
vertex 23.6318966841951 8.10352023290217 0.0
endloop
endfacet
facet normal 0.0 1.0 0.0
outer loop
vertex 23.8907157292976 8.06944605919124 0.0
vertex 23.6318966841951 8.10352023290217 2.0
vertex 23.8907157292976 8.06944605919124 2.0
endloop
endfacet
facet normal 0.499999999999999 0.866025403784439 0.0
outer loop
vertex 23.3907157292976 8.2034206554068 2.0
vertex 23.6318966841951 8.10352023290217 0.0
vertex 23.3907157292976 8.2034206554068 0.0
endloop
endfacet
facet normal 0.25881904510252 0.965925826289069 0.0
outer loop
vertex 23.6318966841951 8.10352023290217 0.0
vertex 23.3907157292976 8.2034206554068 2.0
vertex 23.6318966841951 8.10352023290217 2.0
endloop
endfacet
facet normal 0.707106781186549 0.707106781186546 0.0
outer loop
vertex 23.1836089481111 8.36233927800469 2.0
vertex 23.3907157292976 8.2034206554068 0.0
vertex 23.1836089481111 8.36233927800469 0.0
endloop
endfacet
facet normal 0.499999999999999 0.866025403784439 0.0
outer loop
vertex 23.3907157292976 8.2034206554068 0.0
vertex 23.1836089481111 8.36233927800469 2.0
vertex 23.3907157292976 8.2034206554068 2.0
endloop
endfacet
facet normal 0.866025403784439 0.499999999999999 0.0
outer loop
vertex 23.0246903255132 8.56944605919124 0.0
vertex 23.1836089481111 8.36233927800469 2.0
vertex 23.1836089481111 8.36233927800469 0.0
endloop
endfacet
facet normal 0.707106781186549 0.707106781186546 0.0
outer loop
vertex 23.1836089481111 8.36233927800469 2.0
vertex 23.0246903255132 8.56944605919124 0.0
vertex 23.0246903255132 8.56944605919124 2.0
endloop
endfacet
facet normal 0.965925826289068 0.258819045102521 0.0
outer loop
vertex 22.9247899030086 8.81062701408872 0.0
vertex 23.0246903255132 8.56944605919124 2.0
vertex 23.0246903255132 8.56944605919124 0.0
endloop
endfacet
facet normal 0.866025403784439 0.499999999999999 0.0
outer loop
vertex 23.0246903255132 8.56944605919124 2.0
vertex 22.9247899030086 8.81062701408872 0.0
vertex 22.9247899030086 8.81062701408872 2.0
endloop
endfacet
facet normal 1.0 0.0 0.0
outer loop
vertex 22.8907157292976 9.06944605919124 0.0
vertex 22.9247899030086 8.81062701408872 2.0
vertex 22.9247899030086 8.81062701408872 0.0
endloop
endfacet
facet normal 0.965925826289068 0.258819045102521 0.0
outer loop
vertex 22.9247899030086 8.81062701408872 2.0
vertex 22.8907157292976 9.06944605919124 0.0
vertex 22.8907157292976 9.06944605919124 2.0
endloop
endfacet
facet normal 0.965925826289068 -0.258819045102521 0.0
outer loop
vertex 22.9247899030086 9.32826510429376 0.0
vertex 22.8907157292976 9.06944605919124 2.0
vertex 22.8907157292976 9.06944605919124 0.0
endloop
endfacet
facet normal 1.0 0.0 0.0
outer loop
vertex 22.8907157292976 9.06944605919124 2.0
vertex 22.9247899030086 9.32826510429376 0.0
vertex 22.9247899030086 9.32826510429376 2.0
endloop
endfacet
facet normal 0.500000000000002 0.866025403784437 0.0
outer loop
vertex 23.3907157292976 29.2034206554068 2.0
vertex 23.6318966841951 29.1035202329022 0.0
vertex 23.3907157292976 29.2034206554068 0.0
endloop
endfacet
facet normal 0.258819045102517 0.965925826289069 0.0
outer loop
vertex 23.6318966841951 29.1035202329022 0.0
vertex 23.3907157292976 29.2034206554068 2.0
vertex 23.6318966841951 29.1035202329022 2.0
endloop
endfacet
facet normal 0.707106781186551 0.707106781186544 0.0
outer loop
vertex 23.1836089481111 29.3623392780047 2.0
vertex 23.3907157292976 29.2034206554068 0.0
vertex 23.1836089481111 29.3623392780047 0.0
endloop
endfacet
facet normal 0.500000000000002 0.866025403784437 0.0
outer loop
vertex 23.3907157292976 29.2034206554068 0.0
vertex 23.1836089481111 29.3623392780047 2.0
vertex 23.3907157292976 29.2034206554068 2.0
endloop
endfacet
facet normal 0.866025403784436 0.500000000000004 0.0
outer loop
vertex 23.0246903255132 29.5694460591912 0.0
vertex 23.1836089481111 29.3623392780047 2.0
vertex 23.1836089481111 29.3623392780047 0.0
endloop
endfacet
facet normal 0.707106781186551 0.707106781186544 0.0
outer loop
vertex 23.1836089481111 29.3623392780047 2.0
vertex 23.0246903255132 29.5694460591912 0.0
vertex 23.0246903255132 29.5694460591912 2.0
endloop
endfacet
facet normal 0.965925826289068 0.258819045102523 0.0
outer loop
vertex 22.9247899030086 29.8106270140887 0.0
vertex 23.0246903255132 29.5694460591912 2.0
vertex 23.0246903255132 29.5694460591912 0.0
endloop
endfacet
facet normal 0.866025403784436 0.500000000000004 0.0
outer loop
vertex 23.0246903255132 29.5694460591912 2.0
vertex 22.9247899030086 29.8106270140887 0.0
vertex 22.9247899030086 29.8106270140887 2.0
endloop
endfacet
facet normal 0.0 0.0 -1.0
outer loop
vertex 3.97597174209654 36.122277104173 0.0
vertex 5.89071572929763 30.0694460591912 0.0
vertex 3.97597174209654 3.71360391383704 0.0
endloop
endfacet
facet normal 0.0 0.0 -1.0
outer loop
vertex 5.89071572929763 30.0694460591912 0.0
vertex 3.97597174209654 36.122277104173 0.0
vertex 5.92478990300856 30.3282651042938 0.0
endloop
endfacet
facet normal 0.0 0.0 -1.0
outer loop
vertex 5.92478990300856 30.3282651042938 0.0
vertex 3.97597174209654 36.122277104173 0.0
vertex 6.02469032551319 30.5694460591912 0.0
endloop
endfacet
facet normal 0.0 0.0 -1.0
outer loop
vertex 6.02469032551319 30.5694460591912 0.0
vertex 3.97597174209654 36.122277104173 0.0
vertex 6.18360894811108 30.7765528403778 0.0
endloop
endfacet
facet normal 0.0 0.0 -1.0
outer loop
vertex 6.18360894811108 30.7765528403778 0.0
vertex 3.97597174209654 36.122277104173 0.0
vertex 6.39071572929763 30.9354714629757 0.0
endloop
endfacet
facet normal 0.0 0.0 -1.0
outer loop
vertex 6.39071572929763 30.9354714629757 0.0
vertex 3.97597174209654 36.122277104173 0.0
vertex 6.63189668419511 31.0353718854803 0.0
endloop
endfacet
facet normal 0.0 0.0 -1.0
outer loop
vertex 6.63189668419511 31.0353718854803 0.0
vertex 3.97597174209654 36.122277104173 0.0
vertex 26.2759717420965 36.122277104173 0.0
endloop
endfacet
facet normal 0.0 0.0 -1.0
outer loop
vertex 3.97597174209654 3.71360391383704 0.0
vertex 5.89071572929763 30.0694460591912 0.0
vertex 5.89071572929763 9.06944605919124 0.0
endloop
endfacet
facet normal 0.0 0.0 -1.0
outer loop
vertex 6.63189668419511 31.0353718854803 0.0
vertex 26.2759717420965 36.122277104173 0.0
vertex 6.89071572929763 31.0694460591912 0.0
endloop
endfacet
facet normal 0.0 0.0 -1.0
outer loop
vertex 6.89071572929763 31.0694460591912 0.0
vertex 26.2759717420965 36.122277104173 0.0
vertex 7.14953477440015 31.0353718854803 0.0
endloop
endfacet
facet normal 0.0 0.0 -1.0
outer loop
vertex 7.14953477440015 31.0353718854803 0.0
vertex 26.2759717420965 36.122277104173 0.0
vertex 7.39071572929763 30.9354714629757 0.0
endloop
endfacet
facet normal 0.0 0.0 -1.0
outer loop
vertex 7.39071572929763 30.9354714629757 0.0
vertex 26.2759717420965 36.122277104173 0.0
vertex 7.59782251048418 30.7765528403778 0.0
endloop
endfacet
facet normal 0.0 0.0 -1.0
outer loop
vertex 7.59782251048418 30.7765528403778 0.0
vertex 26.2759717420965 36.122277104173 0.0
vertex 7.75674113308207 30.5694460591912 0.0
endloop
endfacet
facet normal 0.0 0.0 -1.0
outer loop
vertex 7.75674113308207 30.5694460591912 0.0
vertex 26.2759717420965 36.122277104173 0.0
vertex 7.8566415555867 30.3282651042938 0.0
endloop
endfacet
facet normal 0.0 0.0 -1.0
outer loop
vertex 7.8566415555867 30.3282651042938 0.0
vertex 26.2759717420965 36.122277104173 0.0
vertex 7.89071572929763 30.0694460591912 0.0
endloop
endfacet
facet normal 0.0 0.0 -1.0
outer loop
vertex 7.89071572929763 30.0694460591912 0.0
vertex 26.2759717420965 36.122277104173 0.0
vertex 7.89071572929763 9.06944605919124 0.0
endloop
endfacet
facet normal 0.0 0.0 -1.0
outer loop
vertex 7.89071572929763 9.06944605919124 0.0
vertex 26.2759717420965 36.122277104173 0.0
vertex 23.0246903255132 30.5694460591912 0.0
endloop
endfacet
facet normal 0.0 0.0 -1.0
outer loop
vertex 7.89071572929763 9.06944605919124 0.0
vertex 23.0246903255132 30.5694460591912 0.0
vertex 22.9247899030086 30.3282651042938 0.0
endloop
endfacet
facet normal 0.0 0.0 -1.0
outer loop
vertex 7.89071572929763 9.06944605919124 0.0
vertex 22.9247899030086 30.3282651042938 0.0
vertex 22.8907157292976 30.0694460591912 0.0
endloop
endfacet
facet normal 0.0 0.0 -1.0
outer loop
vertex 7.89071572929763 9.06944605919124 0.0
vertex 22.8907157292976 30.0694460591912 0.0
vertex 22.8907157292976 9.06944605919124 0.0
endloop
endfacet
facet normal 0.0 0.0 -1.0
outer loop
vertex 23.0246903255132 30.5694460591912 0.0
vertex 26.2759717420965 36.122277104173 0.0
vertex 23.1836089481111 30.7765528403778 0.0
endloop
endfacet
facet normal 0.0 0.0 -1.0
outer loop
vertex 23.1836089481111 30.7765528403778 0.0
vertex 26.2759717420965 36.122277104173 0.0
vertex 23.3907157292976 30.9354714629757 0.0
endloop
endfacet
facet normal 0.0 0.0 -1.0
outer loop
vertex 23.3907157292976 30.9354714629757 0.0
vertex 26.2759717420965 36.122277104173 0.0
vertex 23.6318966841951 31.0353718854803 0.0
endloop
endfacet
facet normal 0.0 0.0 -1.0
outer loop
vertex 23.6318966841951 31.0353718854803 0.0
vertex 26.2759717420965 36.122277104173 0.0
vertex 23.8907157292976 31.0694460591912 0.0
endloop
endfacet
facet normal 0.0 0.0 -1.0
outer loop
vertex 23.8907157292976 31.0694460591912 0.0
vertex 26.2759717420965 36.122277104173 0.0
vertex 24.1495347744002 31.0353718854803 0.0
endloop
endfacet
facet normal 0.0 0.0 -1.0
outer loop
vertex 24.1495347744002 31.0353718854803 0.0
vertex 26.2759717420965 36.122277104173 0.0
vertex 24.3907157292976 30.9354714629757 0.0
endloop
endfacet
facet normal 0.0 0.0 -1.0
outer loop
vertex 24.3907157292976 30.9354714629757 0.0
vertex 26.2759717420965 36.122277104173 0.0
vertex 24.5978225104842 30.7765528403778 0.0
endloop
endfacet
facet normal 0.0 0.0 -1.0
outer loop
vertex 24.5978225104842 30.7765528403778 0.0
vertex 26.2759717420965 36.122277104173 0.0
vertex 24.7567411330821 30.5694460591912 0.0
endloop
endfacet
facet normal 0.0 0.0 -1.0
outer loop
vertex 24.7567411330821 30.5694460591912 0.0
vertex 26.2759717420965 36.122277104173 0.0
vertex 24.8566415555867 30.3282651042938 0.0
endloop
endfacet
facet normal 0.0 0.0 -1.0
outer loop
vertex 24.8566415555867 30.3282651042938 0.0
vertex 26.2759717420965 36.122277104173 0.0
vertex 24.8907157292976 30.0694460591912 0.0
endloop
endfacet
facet normal 0.0 0.0 -1.0
outer loop
vertex 24.8907157292976 30.0694460591912 0.0
vertex 26.2759717420965 36.122277104173 0.0
vertex 24.8907157292976 9.06944605919124 0.0
endloop
endfacet
facet normal 0.0 0.0 -1.0
outer loop
vertex 0.0 40.0 0.0
vertex 3.97597174209654 38.522277104173 0.0
vertex 0.0 0.0 0.0
endloop
endfacet
facet normal 0.0 0.0 -1.0
outer loop
vertex 3.97597174209654 38.522277104173 0.0
vertex 0.0 40.0 0.0
vertex 30.0 40.0 0.0
endloop
endfacet
facet normal 0.0 0.0 -1.0
outer loop
vertex 3.97597174209654 38.522277104173 0.0
vertex 30.0 40.0 0.0
vertex 26.2759717420965 38.522277104173 0.0
endloop
endfacet
facet normal 0.0 0.0 -1.0
outer loop
vertex 26.2759717420965 38.522277104173 0.0
vertex 30.0 40.0 0.0
vertex 26.2759717420965 36.122277104173 0.0
endloop
endfacet
facet normal 0.0 0.0 -1.0
outer loop
vertex 26.2759717420965 36.122277104173 0.0
vertex 30.0 40.0 0.0
vertex 26.2759717420965 3.71360391383704 0.0
endloop
endfacet
facet normal 0.0 0.0 -1.0
outer loop
vertex 26.2759717420965 3.71360391383704 0.0
vertex 30.0 40.0 0.0
vertex 26.2759717420965 1.31360391383704 0.0
endloop
endfacet
facet normal 0.0 0.0 -1.0
outer loop
vertex 0.0 0.0 0.0
vertex 3.97597174209654 1.31360391383704 0.0
vertex 30.0 0.0 0.0
endloop
endfacet
facet normal 0.0 0.0 -1.0
outer loop
vertex 3.97597174209654 1.31360391383704 0.0
vertex 0.0 0.0 0.0
vertex 3.97597174209654 38.522277104173 0.0
endloop
endfacet
facet normal 0.0 0.0 -1.0
outer loop
vertex 3.97597174209654 1.31360391383704 0.0
vertex 3.97597174209654 38.522277104173 0.0
vertex 3.97597174209654 36.122277104173 0.0
endloop
endfacet
facet normal 0.0 0.0 -1.0
outer loop
vertex 3.97597174209654 1.31360391383704 0.0
vertex 3.97597174209654 36.122277104173 0.0
vertex 3.97597174209654 3.71360391383704 0.0
endloop
endfacet
facet normal 0.0 0.0 -1.0
outer loop
vertex 30.0 0.0 0.0
vertex 3.97597174209654 1.31360391383704 0.0
vertex 26.2759717420965 1.31360391383704 0.0
endloop
endfacet
facet normal 0.0 0.0 -1.0
outer loop
vertex 30.0 0.0 0.0
vertex 26.2759717420965 1.31360391383704 0.0
vertex 30.0 40.0 0.0
endloop
endfacet
facet normal 0.0 0.0 -1.0
outer loop
vertex 3.97597174209654 3.71360391383704 0.0
vertex 6.63189668419511 8.10352023290217 0.0
vertex 26.2759717420965 3.71360391383704 0.0
endloop
endfacet
facet normal 0.0 0.0 -1.0
outer loop
vertex 6.63189668419511 8.10352023290217 0.0
vertex 3.97597174209654 3.71360391383704 0.0
vertex 6.39071572929763 8.2034206554068 0.0
endloop
endfacet
facet normal 0.0 0.0 -1.0
outer loop
vertex 6.39071572929763 8.2034206554068 0.0
vertex 3.97597174209654 3.71360391383704 0.0
vertex 6.18360894811108 8.36233927800469 0.0
endloop
endfacet
facet normal 0.0 0.0 -1.0
outer loop
vertex 6.18360894811108 8.36233927800469 0.0
vertex 3.97597174209654 3.71360391383704 0.0
vertex 6.02469032551319 8.56944605919124 0.0
endloop
endfacet
facet normal 0.0 0.0 -1.0
outer loop
vertex 6.02469032551319 8.56944605919124 0.0
vertex 3.97597174209654 3.71360391383704 0.0
vertex 5.92478990300856 8.81062701408872 0.0
endloop
endfacet
facet normal 0.0 0.0 -1.0
outer loop
vertex 5.92478990300856 8.81062701408872 0.0
vertex 3.97597174209654 3.71360391383704 0.0
vertex 5.89071572929763 9.06944605919124 0.0
endloop
endfacet
facet normal 0.0 0.0 -1.0
outer loop
vertex 26.2759717420965 3.71360391383704 0.0
vertex 6.63189668419511 8.10352023290217 0.0
vertex 6.89071572929763 8.06944605919124 0.0
endloop
endfacet
facet normal 0.0 0.0 -1.0
outer loop
vertex 26.2759717420965 3.71360391383704 0.0
vertex 6.89071572929763 8.06944605919124 0.0
vertex 7.14953477440015 8.10352023290217 0.0
endloop
endfacet
facet normal 0.0 0.0 -1.0
outer loop
vertex 26.2759717420965 3.71360391383704 0.0
vertex 7.14953477440015 8.10352023290217 0.0
vertex 7.39071572929763 8.2034206554068 0.0
endloop
endfacet
facet normal 0.0 0.0 -1.0
outer loop
vertex 26.2759717420965 3.71360391383704 0.0
vertex 7.39071572929763 8.2034206554068 0.0
vertex 7.59782251048418 8.36233927800469 0.0
endloop
endfacet
facet normal 0.0 0.0 -1.0
outer loop
vertex 26.2759717420965 3.71360391383704 0.0
vertex 7.59782251048418 8.36233927800469 0.0
vertex 7.75674113308207 8.56944605919124 0.0
endloop
endfacet
facet normal 0.0 0.0 -1.0
outer loop
vertex 26.2759717420965 3.71360391383704 0.0
vertex 7.75674113308207 8.56944605919124 0.0
vertex 7.8566415555867 8.81062701408872 0.0
endloop
endfacet
facet normal 0.0 0.0 -1.0
outer loop
vertex 26.2759717420965 3.71360391383704 0.0
vertex 7.8566415555867 8.81062701408872 0.0
vertex 7.89071572929763 9.06944605919124 0.0
endloop
endfacet
facet normal 0.0 0.0 -1.0
outer loop
vertex 26.2759717420965 3.71360391383704 0.0
vertex 7.89071572929763 9.06944605919124 0.0
vertex 23.0246903255132 8.56944605919124 0.0
endloop
endfacet
facet normal 0.0 0.0 -1.0
outer loop
vertex 23.0246903255132 8.56944605919124 0.0
vertex 7.89071572929763 9.06944605919124 0.0
vertex 22.9247899030086 8.81062701408872 0.0
endloop
endfacet
facet normal 0.0 0.0 -1.0
outer loop
vertex 22.9247899030086 8.81062701408872 0.0
vertex 7.89071572929763 9.06944605919124 0.0
vertex 22.8907157292976 9.06944605919124 0.0
endloop
endfacet
facet normal 0.0 0.0 -1.0
outer loop
vertex 26.2759717420965 3.71360391383704 0.0
vertex 23.0246903255132 8.56944605919124 0.0
vertex 23.1836089481111 8.36233927800469 0.0
endloop
endfacet
facet normal 0.0 0.0 -1.0
outer loop
vertex 26.2759717420965 3.71360391383704 0.0
vertex 23.1836089481111 8.36233927800469 0.0
vertex 23.3907157292976 8.2034206554068 0.0
endloop
endfacet
facet normal 0.0 0.0 -1.0
outer loop
vertex 26.2759717420965 3.71360391383704 0.0
vertex 23.3907157292976 8.2034206554068 0.0
vertex 23.6318966841951 8.10352023290217 0.0
endloop
endfacet
facet normal 0.0 0.0 -1.0
outer loop
vertex 26.2759717420965 3.71360391383704 0.0
vertex 23.6318966841951 8.10352023290217 0.0
vertex 23.8907157292976 8.06944605919124 0.0
endloop
endfacet
facet normal 0.0 0.0 -1.0
outer loop
vertex 26.2759717420965 3.71360391383704 0.0
vertex 23.8907157292976 8.06944605919124 0.0
vertex 24.1495347744002 8.10352023290217 0.0
endloop
endfacet
facet normal 0.0 0.0 -1.0
outer loop
vertex 26.2759717420965 3.71360391383704 0.0
vertex 24.1495347744002 8.10352023290217 0.0
vertex 24.3907157292976 8.2034206554068 0.0
endloop
endfacet
facet normal 0.0 0.0 -1.0
outer loop
vertex 26.2759717420965 3.71360391383704 0.0
vertex 24.3907157292976 8.2034206554068 0.0
vertex 24.5978225104842 8.36233927800469 0.0
endloop
endfacet
facet normal 0.0 0.0 -1.0
outer loop
vertex 26.2759717420965 3.71360391383704 0.0
vertex 24.5978225104842 8.36233927800469 0.0
vertex 24.7567411330821 8.56944605919124 0.0
endloop
endfacet
facet normal 0.0 0.0 -1.0
outer loop
vertex 26.2759717420965 3.71360391383704 0.0
vertex 24.7567411330821 8.56944605919124 0.0
vertex 24.8566415555867 8.81062701408872 0.0
endloop
endfacet
facet normal 0.0 0.0 -1.0
outer loop
vertex 26.2759717420965 3.71360391383704 0.0
vertex 24.8566415555867 8.81062701408872 0.0
vertex 24.8907157292976 9.06944605919124 0.0
endloop
endfacet
facet normal 0.0 0.0 -1.0
outer loop
vertex 26.2759717420965 3.71360391383704 0.0
vertex 24.8907157292976 9.06944605919124 0.0
vertex 26.2759717420965 36.122277104173 0.0
endloop
endfacet
facet normal 0.0 0.0 -1.0
outer loop
vertex 22.8907157292976 30.0694460591912 0.0
vertex 22.9247899030086 9.32826510429376 0.0
vertex 22.8907157292976 9.06944605919124 0.0
endloop
endfacet
facet normal 0.0 0.0 -1.0
outer loop
vertex 22.9247899030086 9.32826510429376 0.0
vertex 22.8907157292976 30.0694460591912 0.0
vertex 22.9247899030086 29.8106270140887 0.0
endloop
endfacet
facet normal 0.0 0.0 -1.0
outer loop
vertex 22.9247899030086 9.32826510429376 0.0
vertex 22.9247899030086 29.8106270140887 0.0
vertex 23.0246903255132 9.56944605919124 0.0
endloop
endfacet
facet normal 0.0 0.0 -1.0
outer loop
vertex 23.0246903255132 9.56944605919124 0.0
vertex 22.9247899030086 29.8106270140887 0.0
vertex 23.0246903255132 29.5694460591912 0.0
endloop
endfacet
facet normal 0.0 0.0 -1.0
outer loop
vertex 23.0246903255132 9.56944605919124 0.0
vertex 23.0246903255132 29.5694460591912 0.0
vertex 23.1836089481111 9.77655284037779 0.0
endloop
endfacet
facet normal 0.0 0.0 -1.0
outer loop
vertex 23.1836089481111 9.77655284037779 0.0
vertex 23.0246903255132 29.5694460591912 0.0
vertex 23.1836089481111 29.3623392780047 0.0
endloop
endfacet
facet normal 0.0 0.0 -1.0
outer loop
vertex 23.1836089481111 9.77655284037779 0.0
vertex 23.1836089481111 29.3623392780047 0.0
vertex 23.3907157292976 9.93547146297568 0.0
endloop
endfacet
facet normal 0.0 0.0 -1.0
outer loop
vertex 23.3907157292976 9.93547146297568 0.0
vertex 23.1836089481111 29.3623392780047 0.0
vertex 23.3907157292976 29.2034206554068 0.0
endloop
endfacet
facet normal 0.0 0.0 -1.0
outer loop
vertex 23.3907157292976 9.93547146297568 0.0
vertex 23.3907157292976 29.2034206554068 0.0
vertex 23.6318966841951 29.1035202329022 0.0
endloop
endfacet
facet normal 0.0 0.0 -1.0
outer loop
vertex 23.3907157292976 9.93547146297568 0.0
vertex 23.6318966841951 29.1035202329022 0.0
vertex 23.6318966841951 10.0353718854803 0.0
endloop
endfacet
facet normal 0.0 0.0 -1.0
outer loop
vertex 23.6318966841951 10.0353718854803 0.0
vertex 23.6318966841951 29.1035202329022 0.0
vertex 23.8907157292976 29.0694460591912 0.0
endloop
endfacet
facet normal 0.0 0.0 -1.0
outer loop
vertex 23.6318966841951 10.0353718854803 0.0
vertex 23.8907157292976 29.0694460591912 0.0
vertex 23.8907157292976 10.0694460591912 0.0
endloop
endfacet
facet normal 0.0 0.0 -1.0
outer loop
vertex 23.8907157292976 10.0694460591912 0.0
vertex 23.8907157292976 29.0694460591912 0.0
vertex 24.1495347744002 29.1035202329022 0.0
endloop
endfacet
facet normal 0.0 0.0 -1.0
outer loop
vertex 23.8907157292976 10.0694460591912 0.0
vertex 24.1495347744002 29.1035202329022 0.0
vertex 24.1495347744002 10.0353718854803 0.0
endloop
endfacet
facet normal 0.0 0.0 -1.0
outer loop
vertex 24.1495347744002 10.0353718854803 0.0
vertex 24.1495347744002 29.1035202329022 0.0
vertex 24.3907157292976 29.2034206554068 0.0
endloop
endfacet
facet normal 0.0 0.0 -1.0
outer loop
vertex 24.1495347744002 10.0353718854803 0.0
vertex 24.3907157292976 29.2034206554068 0.0
vertex 24.3907157292976 9.93547146297568 0.0
endloop
endfacet
facet normal 0.0 0.0 -1.0
outer loop
vertex 24.3907157292976 9.93547146297568 0.0
vertex 24.3907157292976 29.2034206554068 0.0
vertex 24.5978225104842 29.3623392780047 0.0
endloop
endfacet
facet normal 0.0 0.0 -1.0
outer loop
vertex 24.3907157292976 9.93547146297568 0.0
vertex 24.5978225104842 29.3623392780047 0.0
vertex 24.5978225104842 9.77655284037779 0.0
endloop
endfacet
facet normal 0.0 0.0 -1.0
outer loop
vertex 24.5978225104842 9.77655284037779 0.0
vertex 24.5978225104842 29.3623392780047 0.0
vertex 24.7567411330821 29.5694460591912 0.0
endloop
endfacet
facet normal 0.0 0.0 -1.0
outer loop
vertex 24.5978225104842 9.77655284037779 0.0
vertex 24.7567411330821 29.5694460591912 0.0
vertex 24.7567411330821 9.56944605919124 0.0
endloop
endfacet
facet normal 0.0 0.0 -1.0
outer loop
vertex 24.7567411330821 9.56944605919124 0.0
vertex 24.7567411330821 29.5694460591912 0.0
vertex 24.8566415555867 29.8106270140887 0.0
endloop
endfacet
facet normal 0.0 0.0 -1.0
outer loop
vertex 24.7567411330821 9.56944605919124 0.0
vertex 24.8566415555867 29.8106270140887 0.0
vertex 24.8566415555867 9.32826510429376 0.0
endloop
endfacet
facet normal 0.0 0.0 -1.0
outer loop
vertex 24.8566415555867 9.32826510429376 0.0
vertex 24.8566415555867 29.8106270140887 0.0
vertex 24.8907157292976 30.0694460591912 0.0
endloop
endfacet
facet normal 0.0 0.0 -1.0
outer loop
vertex 24.8566415555867 9.32826510429376 0.0
vertex 24.8907157292976 30.0694460591912 0.0
vertex 24.8907157292976 9.06944605919124 0.0
endloop
endfacet
facet normal 0.0 0.0 -1.0
outer loop
vertex 5.89071572929763 30.0694460591912 0.0
vertex 5.92478990300856 9.32826510429376 0.0
vertex 5.89071572929763 9.06944605919124 0.0
endloop
endfacet
facet normal 0.0 0.0 -1.0
outer loop
vertex 5.92478990300856 9.32826510429376 0.0
vertex 5.89071572929763 30.0694460591912 0.0
vertex 5.92478990300856 29.8106270140887 0.0
endloop
endfacet
facet normal 0.0 0.0 -1.0
outer loop
vertex 5.92478990300856 9.32826510429376 0.0
vertex 5.92478990300856 29.8106270140887 0.0
vertex 6.02469032551319 9.56944605919124 0.0
endloop
endfacet
facet normal 0.0 0.0 -1.0
outer loop
vertex 6.02469032551319 9.56944605919124 0.0
vertex 5.92478990300856 29.8106270140887 0.0
vertex 6.02469032551319 29.5694460591912 0.0
endloop
endfacet
facet normal 0.0 0.0 -1.0
outer loop
vertex 6.02469032551319 9.56944605919124 0.0
vertex 6.02469032551319 29.5694460591912 0.0
vertex 6.18360894811108 9.77655284037779 0.0
endloop
endfacet
facet normal 0.0 0.0 -1.0
outer loop
vertex 6.18360894811108 9.77655284037779 0.0
vertex 6.02469032551319 29.5694460591912 0.0
vertex 6.18360894811108 29.3623392780047 0.0
endloop
endfacet
facet normal 0.0 0.0 -1.0
outer loop
vertex 6.18360894811108 9.77655284037779 0.0
vertex 6.18360894811108 29.3623392780047 0.0
vertex 6.39071572929763 9.93547146297568 0.0
endloop
endfacet
facet normal 0.0 0.0 -1.0
outer loop
vertex 6.39071572929763 9.93547146297568 0.0
vertex 6.18360894811108 29.3623392780047 0.0
vertex 6.39071572929763 29.2034206554068 0.0
endloop
endfacet
facet normal 0.0 0.0 -1.0
outer loop
vertex 6.39071572929763 9.93547146297568 0.0
vertex 6.39071572929763 29.2034206554068 0.0
vertex 6.63189668419511 29.1035202329022 0.0
endloop
endfacet
facet normal 0.0 0.0 -1.0
outer loop
vertex 6.39071572929763 9.93547146297568 0.0
vertex 6.63189668419511 29.1035202329022 0.0
vertex 6.63189668419511 10.0353718854803 0.0
endloop
endfacet
facet normal 0.0 0.0 -1.0
outer loop
vertex 6.63189668419511 10.0353718854803 0.0
vertex 6.63189668419511 29.1035202329022 0.0
vertex 6.89071572929763 29.0694460591912 0.0
endloop
endfacet
facet normal 0.0 0.0 -1.0
outer loop
vertex 6.63189668419511 10.0353718854803 0.0
vertex 6.89071572929763 29.0694460591912 0.0
vertex 6.89071572929763 10.0694460591912 0.0
endloop
endfacet
facet normal 0.0 0.0 -1.0
outer loop
vertex 6.89071572929763 10.0694460591912 0.0
vertex 6.89071572929763 29.0694460591912 0.0
vertex 7.14953477440015 29.1035202329022 0.0
endloop
endfacet
facet normal 0.0 0.0 -1.0
outer loop
vertex 6.89071572929763 10.0694460591912 0.0
vertex 7.14953477440015 29.1035202329022 0.0
vertex 7.14953477440015 10.0353718854803 0.0
endloop
endfacet
facet normal 0.0 0.0 -1.0
outer loop
vertex 7.14953477440015 10.0353718854803 0.0
vertex 7.14953477440015 29.1035202329022 0.0
vertex 7.39071572929763 29.2034206554068 0.0
endloop
endfacet
facet normal 0.0 0.0 -1.0
outer loop
vertex 7.14953477440015 10.0353718854803 0.0
vertex 7.39071572929763 29.2034206554068 0.0
vertex 7.39071572929763 9.93547146297568 0.0
endloop
endfacet
facet normal 0.0 0.0 -1.0
outer loop
vertex 7.39071572929763 9.93547146297568 0.0
vertex 7.39071572929763 29.2034206554068 0.0
vertex 7.59782251048418 29.3623392780047 0.0
endloop
endfacet
facet normal 0.0 0.0 -1.0
outer loop
vertex 7.39071572929763 9.93547146297568 0.0
vertex 7.59782251048418 29.3623392780047 0.0
vertex 7.59782251048418 9.77655284037778 0.0
endloop
endfacet
facet normal 0.0 0.0 -1.0
outer loop
vertex 7.59782251048418 9.77655284037778 0.0
vertex 7.59782251048418 29.3623392780047 0.0
vertex 7.75674113308207 29.5694460591912 0.0
endloop
endfacet
facet normal 0.0 0.0 -1.0
outer loop
vertex 7.59782251048418 9.77655284037778 0.0
vertex 7.75674113308207 29.5694460591912 0.0
vertex 7.75674113308207 9.56944605919124 0.0
endloop
endfacet
facet normal 0.0 0.0 -1.0
outer loop
vertex 7.75674113308207 9.56944605919124 0.0
vertex 7.75674113308207 29.5694460591912 0.0
vertex 7.8566415555867 29.8106270140887 0.0
endloop
endfacet
facet normal 0.0 0.0 -1.0
outer loop
vertex 7.75674113308207 9.56944605919124 0.0
vertex 7.8566415555867 29.8106270140887 0.0
vertex 7.8566415555867 9.32826510429376 0.0
endloop
endfacet
facet normal 0.0 0.0 -1.0
outer loop
vertex 7.8566415555867 9.32826510429376 0.0
vertex 7.8566415555867 29.8106270140887 0.0
vertex 7.89071572929763 30.0694460591912 0.0
endloop
endfacet
facet normal 0.0 0.0 -1.0
outer loop
vertex 7.8566415555867 9.32826510429376 0.0
vertex 7.89071572929763 30.0694460591912 0.0
vertex 7.89071572929763 9.06944605919124 0.0
endloop
endfacet
facet normal 1.0 0.0 0.0
outer loop
vertex 22.8907157292976 30.0694460591912 0.0
vertex 22.9247899030086 29.8106270140887 2.0
vertex 22.9247899030086 29.8106270140887 0.0
endloop
endfacet
facet normal 0.965925826289068 0.258819045102523 0.0
outer loop
vertex 22.9247899030086 29.8106270140887 2.0
vertex 22.8907157292976 30.0694460591912 0.0
vertex 22.8907157292976 30.0694460591912 2.0
endloop
endfacet
facet normal 0.965925826289068 -0.258819045102523 0.0
outer loop
vertex 22.9247899030086 30.3282651042938 0.0
vertex 22.8907157292976 30.0694460591912 2.0
vertex 22.8907157292976 30.0694460591912 0.0
endloop
endfacet
facet normal 1.0 0.0 0.0
outer loop
vertex 22.8907157292976 30.0694460591912 2.0
vertex 22.9247899030086 30.3282651042938 0.0
vertex 22.9247899030086 30.3282651042938 2.0
endloop
endfacet
facet normal 0.866025403784436 -0.500000000000004 0.0
outer loop
vertex 23.0246903255132 30.5694460591912 0.0
vertex 22.9247899030086 30.3282651042938 2.0
vertex 22.9247899030086 30.3282651042938 0.0
endloop
endfacet
facet normal 0.965925826289068 -0.258819045102523 0.0
outer loop
vertex 22.9247899030086 30.3282651042938 2.0
vertex 23.0246903255132 30.5694460591912 0.0
vertex 23.0246903255132 30.5694460591912 2.0
endloop
endfacet
facet normal 0.707106781186551 -0.707106781186544 0.0
outer loop
vertex 23.1836089481111 30.7765528403778 0.0
vertex 23.0246903255132 30.5694460591912 2.0
vertex 23.0246903255132 30.5694460591912 0.0
endloop
endfacet
facet normal 0.866025403784436 -0.500000000000004 0.0
outer loop
vertex 23.0246903255132 30.5694460591912 2.0
vertex 23.1836089481111 30.7765528403778 0.0
vertex 23.1836089481111 30.7765528403778 2.0
endloop
endfacet
facet normal 0.500000000000002 -0.866025403784437 0.0
outer loop
vertex 23.3907157292976 30.9354714629757 2.0
vertex 23.1836089481111 30.7765528403778 0.0
vertex 23.3907157292976 30.9354714629757 0.0
endloop
endfacet
facet normal 0.707106781186551 -0.707106781186544 0.0
outer loop
vertex 23.1836089481111 30.7765528403778 0.0
vertex 23.3907157292976 30.9354714629757 2.0
vertex 23.1836089481111 30.7765528403778 2.0
endloop
endfacet
facet normal 0.258819045102517 -0.965925826289069 0.0
outer loop
vertex 23.6318966841951 31.0353718854803 2.0
vertex 23.3907157292976 30.9354714629757 0.0
vertex 23.6318966841951 31.0353718854803 0.0
endloop
endfacet
facet normal 0.500000000000002 -0.866025403784437 0.0
outer loop
vertex 23.3907157292976 30.9354714629757 0.0
vertex 23.6318966841951 31.0353718854803 2.0
vertex 23.3907157292976 30.9354714629757 2.0
endloop
endfacet
facet normal 0.0 -1.0 0.0
outer loop
vertex 23.8907157292976 31.0694460591912 2.0
vertex 23.6318966841951 31.0353718854803 0.0
vertex 23.8907157292976 31.0694460591912 0.0
endloop
endfacet
facet normal 0.258819045102517 -0.965925826289069 0.0
outer loop
vertex 23.6318966841951 31.0353718854803 0.0
vertex 23.8907157292976 31.0694460591912 2.0
vertex 23.6318966841951 31.0353718854803 2.0
endloop
endfacet
facet normal -0.258819045102517 -0.965925826289069 0.0
outer loop
vertex 24.1495347744002 31.0353718854803 2.0
vertex 23.8907157292976 31.0694460591912 0.0
vertex 24.1495347744002 31.0353718854803 0.0
endloop
endfacet
facet normal 0.0 -1.0 0.0
outer loop
vertex 23.8907157292976 31.0694460591912 0.0
vertex 24.1495347744002 31.0353718854803 2.0
vertex 23.8907157292976 31.0694460591912 2.0
endloop
endfacet
facet normal -0.500000000000002 -0.866025403784437 0.0
outer loop
vertex 24.3907157292976 30.9354714629757 2.0
vertex 24.1495347744002 31.0353718854803 0.0
vertex 24.3907157292976 30.9354714629757 0.0
endloop
endfacet
facet normal -0.258819045102517 -0.965925826289069 0.0
outer loop
vertex 24.1495347744002 31.0353718854803 0.0
vertex 24.3907157292976 30.9354714629757 2.0
vertex 24.1495347744002 31.0353718854803 2.0
endloop
endfacet
facet normal -0.707106781186551 -0.707106781186544 0.0
outer loop
vertex 24.5978225104842 30.7765528403778 2.0
vertex 24.3907157292976 30.9354714629757 0.0
vertex 24.5978225104842 30.7765528403778 0.0
endloop
endfacet
facet normal -0.500000000000002 -0.866025403784437 0.0
outer loop
vertex 24.3907157292976 30.9354714629757 0.0
vertex 24.5978225104842 30.7765528403778 2.0
vertex 24.3907157292976 30.9354714629757 2.0
endloop
endfacet
facet normal -0.707106781186551 -0.707106781186544 0.0
outer loop
vertex 24.5978225104842 30.7765528403778 2.0
vertex 24.7567411330821 30.5694460591912 0.0
vertex 24.7567411330821 30.5694460591912 2.0
endloop
endfacet
facet normal -0.866025403784439 -0.5 0.0
outer loop
vertex 24.7567411330821 30.5694460591912 0.0
vertex 24.5978225104842 30.7765528403778 2.0
vertex 24.5978225104842 30.7765528403778 0.0
endloop
endfacet
facet normal -0.866025403784439 -0.5 0.0
outer loop
vertex 24.7567411330821 30.5694460591912 2.0
vertex 24.8566415555867 30.3282651042938 0.0
vertex 24.8566415555867 30.3282651042938 2.0
endloop
endfacet
facet normal -0.965925826289068 -0.25881904510252 0.0
outer loop
vertex 24.8566415555867 30.3282651042938 0.0
vertex 24.7567411330821 30.5694460591912 2.0
vertex 24.7567411330821 30.5694460591912 0.0
endloop
endfacet
facet normal -0.258819045102522 0.965925826289068 0.0
outer loop
vertex 7.14953477440015 8.10352023290217 2.0
vertex 7.39071572929763 8.2034206554068 0.0
vertex 7.14953477440015 8.10352023290217 0.0
endloop
endfacet
facet normal -0.499999999999999 0.866025403784439 0.0
outer loop
vertex 7.39071572929763 8.2034206554068 0.0
vertex 7.14953477440015 8.10352023290217 2.0
vertex 7.39071572929763 8.2034206554068 2.0
endloop
endfacet
facet normal -0.866025403784438 0.500000000000001 0.0
outer loop
vertex 7.75674113308207 8.56944605919124 2.0
vertex 7.59782251048418 8.36233927800469 0.0
vertex 7.59782251048418 8.36233927800469 2.0
endloop
endfacet
facet normal -0.707106781186546 0.707106781186549 0.0
outer loop
vertex 7.59782251048418 8.36233927800469 0.0
vertex 7.75674113308207 8.56944605919124 2.0
vertex 7.75674113308207 8.56944605919124 0.0
endloop
endfacet
facet normal -0.866025403784439 -0.5 0.0
outer loop
vertex 7.75674113308207 30.5694460591912 2.0
vertex 7.8566415555867 30.3282651042938 0.0
vertex 7.8566415555867 30.3282651042938 2.0
endloop
endfacet
facet normal -0.965925826289069 -0.258819045102518 0.0
outer loop
vertex 7.8566415555867 30.3282651042938 0.0
vertex 7.75674113308207 30.5694460591912 2.0
vertex 7.75674113308207 30.5694460591912 0.0
endloop
endfacet
facet normal -1.0 0.0 0.0
outer loop
vertex 26.2759717420965 38.522277104173 2.0
vertex 26.2759717420965 36.122277104173 0.0
vertex 26.2759717420965 36.122277104173 2.0
endloop
endfacet
facet normal -1.0 0.0 0.0
outer loop
vertex 26.2759717420965 36.122277104173 0.0
vertex 26.2759717420965 38.522277104173 2.0
vertex 26.2759717420965 38.522277104173 0.0
endloop
endfacet
facet normal -0.965925826289068 0.258819045102523 0.0
outer loop
vertex 24.8566415555867 29.8106270140887 2.0
vertex 24.7567411330821 29.5694460591912 0.0
vertex 24.7567411330821 29.5694460591912 2.0
endloop
endfacet
facet normal -0.86602540378444 0.499999999999998 0.0
outer loop
vertex 24.7567411330821 29.5694460591912 0.0
vertex 24.8566415555867 29.8106270140887 2.0
vertex 24.8566415555867 29.8106270140887 0.0
endloop
endfacet
facet normal -1.0 -1.39904425361656e-015 0.0
outer loop
vertex 24.8907157292976 30.0694460591912 2.0
vertex 24.8566415555867 29.8106270140887 0.0
vertex 24.8566415555867 29.8106270140887 2.0
endloop
endfacet
facet normal -0.965925826289068 0.258819045102523 0.0
outer loop
vertex 24.8566415555867 29.8106270140887 0.0
vertex 24.8907157292976 30.0694460591912 2.0
vertex 24.8907157292976 30.0694460591912 0.0
endloop
endfacet
facet normal -0.965925826289068 -0.25881904510252 0.0
outer loop
vertex 24.8566415555867 30.3282651042938 2.0
vertex 24.8907157292976 30.0694460591912 0.0
vertex 24.8907157292976 30.0694460591912 2.0
endloop
endfacet
facet normal -1.0 -1.39904425361656e-015 0.0
outer loop
vertex 24.8907157292976 30.0694460591912 0.0
vertex 24.8566415555867 30.3282651042938 2.0
vertex 24.8566415555867 30.3282651042938 0.0
endloop
endfacet
facet normal 0.499999999999998 -0.86602540378444 0.0
outer loop
vertex 23.3907157292976 9.93547146297568 2.0
vertex 23.1836089481111 9.77655284037779 0.0
vertex 23.3907157292976 9.93547146297568 0.0
endloop
endfacet
facet normal 0.707106781186547 -0.707106781186548 0.0
outer loop
vertex 23.1836089481111 9.77655284037779 0.0
vertex 23.3907157292976 9.93547146297568 2.0
vertex 23.1836089481111 9.77655284037779 2.0
endloop
endfacet
facet normal 0.707106781186547 -0.707106781186548 0.0
outer loop
vertex 23.1836089481111 9.77655284037779 0.0
vertex 23.0246903255132 9.56944605919124 2.0
vertex 23.0246903255132 9.56944605919124 0.0
endloop
endfacet
facet normal 0.866025403784439 -0.499999999999999 0.0
outer loop
vertex 23.0246903255132 9.56944605919124 2.0
vertex 23.1836089481111 9.77655284037779 0.0
vertex 23.1836089481111 9.77655284037779 2.0
endloop
endfacet
facet normal 0.866025403784439 -0.499999999999999 0.0
outer loop
vertex 23.0246903255132 9.56944605919124 0.0
vertex 22.9247899030086 9.32826510429376 2.0
vertex 22.9247899030086 9.32826510429376 0.0
endloop
endfacet
facet normal 0.965925826289068 -0.258819045102521 0.0
outer loop
vertex 22.9247899030086 9.32826510429376 2.0
vertex 23.0246903255132 9.56944605919124 0.0
vertex 23.0246903255132 9.56944605919124 2.0
endloop
endfacet
facet normal -1.0 -3.65355505721523e-016 0.0
outer loop
vertex 7.89071572929763 9.06944605919124 2.0
vertex 7.8566415555867 8.81062701408872 0.0
vertex 7.8566415555867 8.81062701408872 2.0
endloop
endfacet
facet normal -0.965925826289068 0.258819045102521 0.0
outer loop
vertex 7.8566415555867 8.81062701408872 0.0
vertex 7.89071572929763 9.06944605919124 2.0
vertex 7.89071572929763 9.06944605919124 0.0
endloop
endfacet
facet normal -0.499999999999999 0.866025403784439 0.0
outer loop
vertex 7.39071572929763 8.2034206554068 2.0
vertex 7.59782251048418 8.36233927800469 0.0
vertex 7.39071572929763 8.2034206554068 0.0
endloop
endfacet
facet normal -0.707106781186546 0.707106781186549 0.0
outer loop
vertex 7.59782251048418 8.36233927800469 0.0
vertex 7.39071572929763 8.2034206554068 2.0
vertex 7.59782251048418 8.36233927800469 2.0
endloop
endfacet
facet normal -3.65355505721523e-016 1.0 0.0
outer loop
vertex 6.89071572929763 8.06944605919124 2.0
vertex 7.14953477440015 8.10352023290217 0.0
vertex 6.89071572929763 8.06944605919124 0.0
endloop
endfacet
facet normal -0.258819045102522 0.965925826289068 0.0
outer loop
vertex 7.14953477440015 8.10352023290217 0.0
vertex 6.89071572929763 8.06944605919124 2.0
vertex 7.14953477440015 8.10352023290217 2.0
endloop
endfacet
facet normal 0.258819045102521 0.965925826289068 0.0
outer loop
vertex 6.63189668419511 8.10352023290217 2.0
vertex 6.89071572929763 8.06944605919124 0.0
vertex 6.63189668419511 8.10352023290217 0.0
endloop
endfacet
facet normal -3.65355505721523e-016 1.0 0.0
outer loop
vertex 6.89071572929763 8.06944605919124 0.0
vertex 6.63189668419511 8.10352023290217 2.0
vertex 6.89071572929763 8.06944605919124 2.0
endloop
endfacet
facet normal -1.0 0.0 0.0
outer loop
vertex 26.2759717420965 3.71360391383704 2.0
vertex 26.2759717420965 1.31360391383704 0.0
vertex 26.2759717420965 1.31360391383704 2.0
endloop
endfacet
facet normal -1.0 0.0 0.0
outer loop
vertex 26.2759717420965 1.31360391383704 0.0
vertex 26.2759717420965 3.71360391383704 2.0
vertex 26.2759717420965 3.71360391383704 0.0
endloop
endfacet
facet normal 1.0 0.0 0.0
outer loop
vertex 3.97597174209654 3.71360391383704 0.0
vertex 3.97597174209654 1.31360391383704 2.0
vertex 3.97597174209654 1.31360391383704 0.0
endloop
endfacet
facet normal 1.0 0.0 0.0
outer loop
vertex 3.97597174209654 1.31360391383704 2.0
vertex 3.97597174209654 3.71360391383704 0.0
vertex 3.97597174209654 3.71360391383704 2.0
endloop
endfacet
facet normal -0.965925826289068 0.258819045102521 0.0
outer loop
vertex 7.8566415555867 8.81062701408872 2.0
vertex 7.75674113308207 8.56944605919124 0.0
vertex 7.75674113308207 8.56944605919124 2.0
endloop
endfacet
facet normal -0.866025403784438 0.500000000000001 0.0
outer loop
vertex 7.75674113308207 8.56944605919124 0.0
vertex 7.8566415555867 8.81062701408872 2.0
vertex 7.8566415555867 8.81062701408872 0.0
endloop
endfacet
facet normal 0.866025403784439 0.5 0.0
outer loop
vertex 6.02469032551319 8.56944605919124 0.0
vertex 6.18360894811108 8.36233927800469 2.0
vertex 6.18360894811108 8.36233927800469 0.0
endloop
endfacet
facet normal 0.707106781186548 0.707106781186547 0.0
outer loop
vertex 6.18360894811108 8.36233927800469 2.0
vertex 6.02469032551319 8.56944605919124 0.0
vertex 6.02469032551319 8.56944605919124 2.0
endloop
endfacet
facet normal 0.707106781186548 0.707106781186547 0.0
outer loop
vertex 6.18360894811108 8.36233927800469 2.0
vertex 6.39071572929763 8.2034206554068 0.0
vertex 6.18360894811108 8.36233927800469 0.0
endloop
endfacet
facet normal 0.500000000000002 0.866025403784437 0.0
outer loop
vertex 6.39071572929763 8.2034206554068 0.0
vertex 6.18360894811108 8.36233927800469 2.0
vertex 6.39071572929763 8.2034206554068 2.0
endloop
endfacet
facet normal 0.500000000000002 0.866025403784437 0.0
outer loop
vertex 6.39071572929763 8.2034206554068 2.0
vertex 6.63189668419511 8.10352023290217 0.0
vertex 6.39071572929763 8.2034206554068 0.0
endloop
endfacet
facet normal 0.258819045102521 0.965925826289068 0.0
outer loop
vertex 6.63189668419511 8.10352023290217 0.0
vertex 6.39071572929763 8.2034206554068 2.0
vertex 6.63189668419511 8.10352023290217 2.0
endloop
endfacet
facet normal -0.258819045102517 0.965925826289069 0.0
outer loop
vertex 7.14953477440015 29.1035202329022 2.0
vertex 7.39071572929763 29.2034206554068 0.0
vertex 7.14953477440015 29.1035202329022 0.0
endloop
endfacet
facet normal -0.499999999999995 0.866025403784441 0.0
outer loop
vertex 7.39071572929763 29.2034206554068 0.0
vertex 7.14953477440015 29.1035202329022 2.0
vertex 7.39071572929763 29.2034206554068 2.0
endloop
endfacet
facet normal 0.0 -1.0 0.0
outer loop
vertex 26.2759717420965 3.71360391383704 2.0
vertex 3.97597174209654 3.71360391383704 0.0
vertex 26.2759717420965 3.71360391383704 0.0
endloop
endfacet
facet normal 0.0 -1.0 0.0
outer loop
vertex 3.97597174209654 3.71360391383704 0.0
vertex 26.2759717420965 3.71360391383704 2.0
vertex 3.97597174209654 3.71360391383704 2.0
endloop
endfacet
facet normal 0.0 -1.0 0.0
outer loop
vertex 26.2759717420965 38.522277104173 2.0
vertex 3.97597174209654 38.522277104173 0.0
vertex 26.2759717420965 38.522277104173 0.0
endloop
endfacet
facet normal 0.0 -1.0 0.0
outer loop
vertex 3.97597174209654 38.522277104173 0.0
vertex 26.2759717420965 38.522277104173 2.0
vertex 3.97597174209654 38.522277104173 2.0
endloop
endfacet
facet normal -0.86602540378444 0.499999999999998 0.0
outer loop
vertex 24.7567411330821 29.5694460591912 2.0
vertex 24.5978225104842 29.3623392780047 0.0
vertex 24.5978225104842 29.3623392780047 2.0
endloop
endfacet
facet normal -0.70710678118655 0.707106781186545 0.0
outer loop
vertex 24.5978225104842 29.3623392780047 0.0
vertex 24.7567411330821 29.5694460591912 2.0
vertex 24.7567411330821 29.5694460591912 0.0
endloop
endfacet
facet normal -0.70710678118655 -0.707106781186545 0.0
outer loop
vertex 7.59782251048418 30.7765528403778 2.0
vertex 7.75674113308207 30.5694460591912 0.0
vertex 7.75674113308207 30.5694460591912 2.0
endloop
endfacet
facet normal -0.866025403784439 -0.5 0.0
outer loop
vertex 7.75674113308207 30.5694460591912 0.0
vertex 7.59782251048418 30.7765528403778 2.0
vertex 7.59782251048418 30.7765528403778 0.0
endloop
endfacet
facet normal -0.965925826289069 -0.258819045102519 0.0
outer loop
vertex 7.8566415555867 9.32826510429376 2.0
vertex 7.89071572929763 9.06944605919124 0.0
vertex 7.89071572929763 9.06944605919124 2.0
endloop
endfacet
facet normal -1.0 -3.65355505721523e-016 0.0
outer loop
vertex 7.89071572929763 9.06944605919124 0.0
vertex 7.8566415555867 9.32826510429376 2.0
vertex 7.8566415555867 9.32826510429376 0.0
endloop
endfacet
facet normal 0.866025403784437 0.500000000000004 0.0
outer loop
vertex 6.02469032551319 29.5694460591912 0.0
vertex 6.18360894811108 29.3623392780047 2.0
vertex 6.18360894811108 29.3623392780047 0.0
endloop
endfacet
facet normal 0.70710678118655 0.707106781186545 0.0
outer loop
vertex 6.18360894811108 29.3623392780047 2.0
vertex 6.02469032551319 29.5694460591912 0.0
vertex 6.02469032551319 29.5694460591912 2.0
endloop
endfacet
facet normal -0.499999999999995 0.866025403784441 0.0
outer loop
vertex 7.39071572929763 29.2034206554068 2.0
vertex 7.59782251048418 29.3623392780047 0.0
vertex 7.39071572929763 29.2034206554068 0.0
endloop
endfacet
facet normal -0.70710678118655 0.707106781186545 0.0
outer loop
vertex 7.59782251048418 29.3623392780047 0.0
vertex 7.39071572929763 29.2034206554068 2.0
vertex 7.59782251048418 29.3623392780047 2.0
endloop
endfacet
facet normal -0.86602540378444 0.499999999999998 0.0
outer loop
vertex 7.75674113308207 29.5694460591912 2.0
vertex 7.59782251048418 29.3623392780047 0.0
vertex 7.59782251048418 29.3623392780047 2.0
endloop
endfacet
facet normal -0.70710678118655 0.707106781186545 0.0
outer loop
vertex 7.59782251048418 29.3623392780047 0.0
vertex 7.75674113308207 29.5694460591912 2.0
vertex 7.75674113308207 29.5694460591912 0.0
endloop
endfacet
facet normal -0.965925826289068 0.258819045102523 0.0
outer loop
vertex 7.8566415555867 29.8106270140887 2.0
vertex 7.75674113308207 29.5694460591912 0.0
vertex 7.75674113308207 29.5694460591912 2.0
endloop
endfacet
facet normal -0.86602540378444 0.499999999999998 0.0
outer loop
vertex 7.75674113308207 29.5694460591912 0.0
vertex 7.8566415555867 29.8106270140887 2.0
vertex 7.8566415555867 29.8106270140887 0.0
endloop
endfacet
facet normal 0.258819045102517 0.965925826289069 0.0
outer loop
vertex 23.6318966841951 29.1035202329022 2.0
vertex 23.8907157292976 29.0694460591912 0.0
vertex 23.6318966841951 29.1035202329022 0.0
endloop
endfacet
facet normal 0.0 1.0 0.0
outer loop
vertex 23.8907157292976 29.0694460591912 0.0
vertex 23.6318966841951 29.1035202329022 2.0
vertex 23.8907157292976 29.0694460591912 2.0
endloop
endfacet
facet normal 0.0 1.0 0.0
outer loop
vertex 23.8907157292976 29.0694460591912 2.0
vertex 24.1495347744002 29.1035202329022 0.0
vertex 23.8907157292976 29.0694460591912 0.0
endloop
endfacet
facet normal -0.258819045102517 0.965925826289069 0.0
outer loop
vertex 24.1495347744002 29.1035202329022 0.0
vertex 23.8907157292976 29.0694460591912 2.0
vertex 24.1495347744002 29.1035202329022 2.0
endloop
endfacet
facet normal -0.258819045102517 0.965925826289069 0.0
outer loop
vertex 24.1495347744002 29.1035202329022 2.0
vertex 24.3907157292976 29.2034206554068 0.0
vertex 24.1495347744002 29.1035202329022 0.0
endloop
endfacet
facet normal -0.499999999999995 0.866025403784441 0.0
outer loop
vertex 24.3907157292976 29.2034206554068 0.0
vertex 24.1495347744002 29.1035202329022 2.0
vertex 24.3907157292976 29.2034206554068 2.0
endloop
endfacet
facet normal -0.499999999999995 0.866025403784441 0.0
outer loop
vertex 24.3907157292976 29.2034206554068 2.0
vertex 24.5978225104842 29.3623392780047 0.0
vertex 24.3907157292976 29.2034206554068 0.0
endloop
endfacet
facet normal -0.70710678118655 0.707106781186545 0.0
outer loop
vertex 24.5978225104842 29.3623392780047 0.0
vertex 24.3907157292976 29.2034206554068 2.0
vertex 24.5978225104842 29.3623392780047 2.0
endloop
endfacet
facet normal 0.965925826289068 -0.258819045102522 0.0
outer loop
vertex 5.92478990300856 30.3282651042938 0.0
vertex 5.89071572929763 30.0694460591912 2.0
vertex 5.89071572929763 30.0694460591912 0.0
endloop
endfacet
facet normal 1.0 0.0 0.0
outer loop
vertex 5.89071572929763 30.0694460591912 2.0
vertex 5.92478990300856 30.3282651042938 0.0
vertex 5.92478990300856 30.3282651042938 2.0
endloop
endfacet
facet normal 1.0 0.0 0.0
outer loop
vertex 5.89071572929763 30.0694460591912 0.0
vertex 5.92478990300856 29.8106270140887 2.0
vertex 5.92478990300856 29.8106270140887 0.0
endloop
endfacet
facet normal 0.965925826289068 0.258819045102522 0.0
outer loop
vertex 5.92478990300856 29.8106270140887 2.0
vertex 5.89071572929763 30.0694460591912 0.0
vertex 5.89071572929763 30.0694460591912 2.0
endloop
endfacet
facet normal 0.965925826289068 0.258819045102522 0.0
outer loop
vertex 5.92478990300856 29.8106270140887 0.0
vertex 6.02469032551319 29.5694460591912 2.0
vertex 6.02469032551319 29.5694460591912 0.0
endloop
endfacet
facet normal 0.866025403784437 0.500000000000004 0.0
outer loop
vertex 6.02469032551319 29.5694460591912 2.0
vertex 5.92478990300856 29.8106270140887 0.0
vertex 5.92478990300856 29.8106270140887 2.0
endloop
endfacet
facet normal 1.0 0.0 0.0
outer loop
vertex 3.97597174209654 38.522277104173 0.0
vertex 3.97597174209654 36.122277104173 2.0
vertex 3.97597174209654 36.122277104173 0.0
endloop
endfacet
facet normal 1.0 0.0 0.0
outer loop
vertex 3.97597174209654 36.122277104173 2.0
vertex 3.97597174209654 38.522277104173 0.0
vertex 3.97597174209654 38.522277104173 2.0
endloop
endfacet
facet normal 0.0 1.0 0.0
outer loop
vertex 3.97597174209654 36.122277104173 2.0
vertex 26.2759717420965 36.122277104173 0.0
vertex 3.97597174209654 36.122277104173 0.0
endloop
endfacet
facet normal 0.0 1.0 0.0
outer loop
vertex 26.2759717420965 36.122277104173 0.0
vertex 3.97597174209654 36.122277104173 2.0
vertex 26.2759717420965 36.122277104173 2.0
endloop
endfacet
facet normal 0.0 1.0 0.0
outer loop
vertex 3.97597174209654 1.31360391383704 2.0
vertex 26.2759717420965 1.31360391383704 0.0
vertex 3.97597174209654 1.31360391383704 0.0
endloop
endfacet
facet normal 0.0 1.0 0.0
outer loop
vertex 26.2759717420965 1.31360391383704 0.0
vertex 3.97597174209654 1.31360391383704 2.0
vertex 26.2759717420965 1.31360391383704 2.0
endloop
endfacet
facet normal -0.866025403784439 -0.499999999999999 0.0
outer loop
vertex 7.75674113308207 9.56944605919124 2.0
vertex 7.8566415555867 9.32826510429376 0.0
vertex 7.8566415555867 9.32826510429376 2.0
endloop
endfacet
facet normal -0.965925826289069 -0.258819045102519 0.0
outer loop
vertex 7.8566415555867 9.32826510429376 0.0
vertex 7.75674113308207 9.56944605919124 2.0
vertex 7.75674113308207 9.56944605919124 0.0
endloop
endfacet
facet normal -0.707106781186548 -0.707106781186548 0.0
outer loop
vertex 7.59782251048418 9.77655284037778 2.0
vertex 7.75674113308207 9.56944605919124 0.0
vertex 7.75674113308207 9.56944605919124 2.0
endloop
endfacet
facet normal -0.866025403784439 -0.499999999999999 0.0
outer loop
vertex 7.75674113308207 9.56944605919124 0.0
vertex 7.59782251048418 9.77655284037778 2.0
vertex 7.59782251048418 9.77655284037778 0.0
endloop
endfacet
facet normal -0.707106781186548 -0.707106781186548 0.0
outer loop
vertex 7.59782251048418 9.77655284037778 2.0
vertex 7.39071572929763 9.93547146297568 0.0
vertex 7.59782251048418 9.77655284037778 0.0
endloop
endfacet
facet normal -0.500000000000001 -0.866025403784438 0.0
outer loop
vertex 7.39071572929763 9.93547146297568 0.0
vertex 7.59782251048418 9.77655284037778 2.0
vertex 7.39071572929763 9.93547146297568 2.0
endloop
endfacet
facet normal -0.500000000000001 -0.866025403784438 0.0
outer loop
vertex 7.39071572929763 9.93547146297568 2.0
vertex 7.14953477440015 10.0353718854803 0.0
vertex 7.39071572929763 9.93547146297568 0.0
endloop
endfacet
facet normal -0.258819045102521 -0.965925826289068 0.0
outer loop
vertex 7.14953477440015 10.0353718854803 0.0
vertex 7.39071572929763 9.93547146297568 2.0
vertex 7.14953477440015 10.0353718854803 2.0
endloop
endfacet
facet normal -0.258819045102521 -0.965925826289068 0.0
outer loop
vertex 7.14953477440015 10.0353718854803 2.0
vertex 6.89071572929763 10.0694460591912 0.0
vertex 7.14953477440015 10.0353718854803 0.0
endloop
endfacet
facet normal 3.65355505721523e-016 -1.0 0.0
outer loop
vertex 6.89071572929763 10.0694460591912 0.0
vertex 7.14953477440015 10.0353718854803 2.0
vertex 6.89071572929763 10.0694460591912 2.0
endloop
endfacet
facet normal 0.866025403784439 -0.5 0.0
outer loop
vertex 6.02469032551319 9.56944605919124 0.0
vertex 5.92478990300856 9.32826510429376 2.0
vertex 5.92478990300856 9.32826510429376 0.0
endloop
endfacet
facet normal 0.965925826289068 -0.258819045102521 0.0
outer loop
vertex 5.92478990300856 9.32826510429376 2.0
vertex 6.02469032551319 9.56944605919124 0.0
vertex 6.02469032551319 9.56944605919124 2.0
endloop
endfacet
facet normal 1.0 3.65355505721523e-016 0.0
outer loop
vertex 5.89071572929763 9.06944605919124 0.0
vertex 5.92478990300856 8.81062701408872 2.0
vertex 5.92478990300856 8.81062701408872 0.0
endloop
endfacet
facet normal 0.965925826289068 0.258819045102521 0.0
outer loop
vertex 5.92478990300856 8.81062701408872 2.0
vertex 5.89071572929763 9.06944605919124 0.0
vertex 5.89071572929763 9.06944605919124 2.0
endloop
endfacet
facet normal 0.965925826289068 -0.258819045102521 0.0
outer loop
vertex 5.92478990300856 9.32826510429376 0.0
vertex 5.89071572929763 9.06944605919124 2.0
vertex 5.89071572929763 9.06944605919124 0.0
endloop
endfacet
facet normal 1.0 3.65355505721523e-016 0.0
outer loop
vertex 5.89071572929763 9.06944605919124 2.0
vertex 5.92478990300856 9.32826510429376 0.0
vertex 5.92478990300856 9.32826510429376 2.0
endloop
endfacet
facet normal 0.965925826289068 0.258819045102521 0.0
outer loop
vertex 5.92478990300856 8.81062701408872 0.0
vertex 6.02469032551319 8.56944605919124 2.0
vertex 6.02469032551319 8.56944605919124 0.0
endloop
endfacet
facet normal 0.866025403784439 0.5 0.0
outer loop
vertex 6.02469032551319 8.56944605919124 2.0
vertex 5.92478990300856 8.81062701408872 0.0
vertex 5.92478990300856 8.81062701408872 2.0
endloop
endfacet
facet normal 0.499999999999998 -0.86602540378444 0.0
outer loop
vertex 6.39071572929763 9.93547146297568 2.0
vertex 6.18360894811108 9.77655284037779 0.0
vertex 6.39071572929763 9.93547146297568 0.0
endloop
endfacet
facet normal 0.707106781186548 -0.707106781186547 0.0
outer loop
vertex 6.18360894811108 9.77655284037779 0.0
vertex 6.39071572929763 9.93547146297568 2.0
vertex 6.18360894811108 9.77655284037779 2.0
endloop
endfacet
facet normal 3.65355505721523e-016 -1.0 0.0
outer loop
vertex 6.89071572929763 10.0694460591912 2.0
vertex 6.63189668419511 10.0353718854803 0.0
vertex 6.89071572929763 10.0694460591912 0.0
endloop
endfacet
facet normal 0.258819045102519 -0.965925826289069 0.0
outer loop
vertex 6.63189668419511 10.0353718854803 0.0
vertex 6.89071572929763 10.0694460591912 2.0
vertex 6.63189668419511 10.0353718854803 2.0
endloop
endfacet
facet normal 0.707106781186548 -0.707106781186547 0.0
outer loop
vertex 6.18360894811108 9.77655284037779 0.0
vertex 6.02469032551319 9.56944605919124 2.0
vertex 6.02469032551319 9.56944605919124 0.0
endloop
endfacet
facet normal 0.866025403784439 -0.5 0.0
outer loop
vertex 6.02469032551319 9.56944605919124 2.0
vertex 6.18360894811108 9.77655284037779 0.0
vertex 6.18360894811108 9.77655284037779 2.0
endloop
endfacet
facet normal 0.258819045102519 -0.965925826289069 0.0
outer loop
vertex 6.63189668419511 10.0353718854803 2.0
vertex 6.39071572929763 9.93547146297568 0.0
vertex 6.63189668419511 10.0353718854803 0.0
endloop
endfacet
facet normal 0.499999999999998 -0.86602540378444 0.0
outer loop
vertex 6.39071572929763 9.93547146297568 0.0
vertex 6.63189668419511 10.0353718854803 2.0
vertex 6.39071572929763 9.93547146297568 2.0
endloop
endfacet
facet normal 0.866025403784437 -0.500000000000004 0.0
outer loop
vertex 6.02469032551319 30.5694460591912 0.0
vertex 5.92478990300856 30.3282651042938 2.0
vertex 5.92478990300856 30.3282651042938 0.0
endloop
endfacet
facet normal 0.965925826289068 -0.258819045102522 0.0
outer loop
vertex 5.92478990300856 30.3282651042938 2.0
vertex 6.02469032551319 30.5694460591912 0.0
vertex 6.02469032551319 30.5694460591912 2.0
endloop
endfacet
facet normal -1.0 -3.65355505721523e-016 0.0
outer loop
vertex 24.8907157292976 9.06944605919124 2.0
vertex 24.8566415555867 8.81062701408872 0.0
vertex 24.8566415555867 8.81062701408872 2.0
endloop
endfacet
facet normal -0.965925826289068 0.258819045102521 0.0
outer loop
vertex 24.8566415555867 8.81062701408872 0.0
vertex 24.8907157292976 9.06944605919124 2.0
vertex 24.8907157292976 9.06944605919124 0.0
endloop
endfacet
facet normal -0.965925826289068 -0.258819045102521 0.0
outer loop
vertex 24.8566415555867 9.32826510429376 2.0
vertex 24.8907157292976 9.06944605919124 0.0
vertex 24.8907157292976 9.06944605919124 2.0
endloop
endfacet
facet normal -1.0 -3.65355505721523e-016 0.0
outer loop
vertex 24.8907157292976 9.06944605919124 0.0
vertex 24.8566415555867 9.32826510429376 2.0
vertex 24.8566415555867 9.32826510429376 0.0
endloop
endfacet
facet normal -0.86602540378444 -0.499999999999998 0.0
outer loop
vertex 24.7567411330821 9.56944605919124 2.0
vertex 24.8566415555867 9.32826510429376 0.0
vertex 24.8566415555867 9.32826510429376 2.0
endloop
endfacet
facet normal -0.965925826289068 -0.258819045102521 0.0
outer loop
vertex 24.8566415555867 9.32826510429376 0.0
vertex 24.7567411330821 9.56944605919124 2.0
vertex 24.7567411330821 9.56944605919124 0.0
endloop
endfacet
facet normal -0.707106781186549 -0.707106781186546 0.0
outer loop
vertex 24.5978225104842 9.77655284037779 2.0
vertex 24.7567411330821 9.56944605919124 0.0
vertex 24.7567411330821 9.56944605919124 2.0
endloop
endfacet
facet normal -0.86602540378444 -0.499999999999998 0.0
outer loop
vertex 24.7567411330821 9.56944605919124 0.0
vertex 24.5978225104842 9.77655284037779 2.0
vertex 24.5978225104842 9.77655284037779 0.0
endloop
endfacet
facet normal -0.707106781186549 -0.707106781186546 0.0
outer loop
vertex 24.5978225104842 9.77655284037779 2.0
vertex 24.3907157292976 9.93547146297568 0.0
vertex 24.5978225104842 9.77655284037779 0.0
endloop
endfacet
facet normal -0.500000000000001 -0.866025403784438 0.0
outer loop
vertex 24.3907157292976 9.93547146297568 0.0
vertex 24.5978225104842 9.77655284037779 2.0
vertex 24.3907157292976 9.93547146297568 2.0
endloop
endfacet
facet normal -0.500000000000001 -0.866025403784438 0.0
outer loop
vertex 24.3907157292976 9.93547146297568 2.0
vertex 24.1495347744002 10.0353718854803 0.0
vertex 24.3907157292976 9.93547146297568 0.0
endloop
endfacet
facet normal -0.258819045102521 -0.965925826289068 0.0
outer loop
vertex 24.1495347744002 10.0353718854803 0.0
vertex 24.3907157292976 9.93547146297568 2.0
vertex 24.1495347744002 10.0353718854803 2.0
endloop
endfacet
facet normal -0.258819045102521 -0.965925826289068 0.0
outer loop
vertex 24.1495347744002 10.0353718854803 2.0
vertex 23.8907157292976 10.0694460591912 0.0
vertex 24.1495347744002 10.0353718854803 0.0
endloop
endfacet
facet normal 7.03977681756105e-016 -1.0 0.0
outer loop
vertex 23.8907157292976 10.0694460591912 0.0
vertex 24.1495347744002 10.0353718854803 2.0
vertex 23.8907157292976 10.0694460591912 2.0
endloop
endfacet
facet normal 7.03977681756105e-016 -1.0 0.0
outer loop
vertex 23.8907157292976 10.0694460591912 2.0
vertex 23.6318966841951 10.0353718854803 0.0
vertex 23.8907157292976 10.0694460591912 0.0
endloop
endfacet
facet normal 0.258819045102522 -0.965925826289068 0.0
outer loop
vertex 23.6318966841951 10.0353718854803 0.0
vertex 23.8907157292976 10.0694460591912 2.0
vertex 23.6318966841951 10.0353718854803 2.0
endloop
endfacet
facet normal 0.258819045102522 -0.965925826289068 0.0
outer loop
vertex 23.6318966841951 10.0353718854803 2.0
vertex 23.3907157292976 9.93547146297568 0.0
vertex 23.6318966841951 10.0353718854803 0.0
endloop
endfacet
facet normal 0.499999999999998 -0.86602540378444 0.0
outer loop
vertex 23.3907157292976 9.93547146297568 0.0
vertex 23.6318966841951 10.0353718854803 2.0
vertex 23.3907157292976 9.93547146297568 2.0
endloop
endfacet
facet normal 0.0 0.0 1.0
outer loop
vertex 5.92478990300856 9.32826510429376 2.0
vertex 5.89071572929763 30.0694460591912 2.0
vertex 5.89071572929763 9.06944605919124 2.0
endloop
endfacet
facet normal 0.0 0.0 1.0
outer loop
vertex 5.89071572929763 30.0694460591912 2.0
vertex 5.92478990300856 9.32826510429376 2.0
vertex 5.92478990300856 29.8106270140887 2.0
endloop
endfacet
facet normal 0.0 0.0 1.0
outer loop
vertex 5.92478990300856 29.8106270140887 2.0
vertex 5.92478990300856 9.32826510429376 2.0
vertex 6.02469032551319 9.56944605919124 2.0
endloop
endfacet
facet normal 0.0 0.0 1.0
outer loop
vertex 5.92478990300856 29.8106270140887 2.0
vertex 6.02469032551319 9.56944605919124 2.0
vertex 6.02469032551319 29.5694460591912 2.0
endloop
endfacet
facet normal 0.0 0.0 1.0
outer loop
vertex 6.02469032551319 29.5694460591912 2.0
vertex 6.02469032551319 9.56944605919124 2.0
vertex 6.18360894811108 9.77655284037779 2.0
endloop
endfacet
facet normal 0.0 0.0 1.0
outer loop
vertex 6.02469032551319 29.5694460591912 2.0
vertex 6.18360894811108 9.77655284037779 2.0
vertex 6.18360894811108 29.3623392780047 2.0
endloop
endfacet
facet normal 0.0 0.0 1.0
outer loop
vertex 6.18360894811108 29.3623392780047 2.0
vertex 6.18360894811108 9.77655284037779 2.0
vertex 6.39071572929763 9.93547146297568 2.0
endloop
endfacet
facet normal 0.0 0.0 1.0
outer loop
vertex 6.18360894811108 29.3623392780047 2.0
vertex 6.39071572929763 9.93547146297568 2.0
vertex 6.39071572929763 29.2034206554068 2.0
endloop
endfacet
facet normal 0.0 0.0 1.0
outer loop
vertex 6.39071572929763 29.2034206554068 2.0
vertex 6.39071572929763 9.93547146297568 2.0
vertex 6.63189668419511 10.0353718854803 2.0
endloop
endfacet
facet normal 0.0 0.0 1.0
outer loop
vertex 6.39071572929763 29.2034206554068 2.0
vertex 6.63189668419511 10.0353718854803 2.0
vertex 6.63189668419511 29.1035202329022 2.0
endloop
endfacet
facet normal 0.0 0.0 1.0
outer loop
vertex 6.63189668419511 29.1035202329022 2.0
vertex 6.63189668419511 10.0353718854803 2.0
vertex 6.89071572929763 10.0694460591912 2.0
endloop
endfacet
facet normal 0.0 0.0 1.0
outer loop
vertex 6.63189668419511 29.1035202329022 2.0
vertex 6.89071572929763 10.0694460591912 2.0
vertex 6.89071572929763 29.0694460591912 2.0
endloop
endfacet
facet normal 0.0 0.0 1.0
outer loop
vertex 6.89071572929763 29.0694460591912 2.0
vertex 6.89071572929763 10.0694460591912 2.0
vertex 7.14953477440015 10.0353718854803 2.0
endloop
endfacet
facet normal 0.0 0.0 1.0
outer loop
vertex 6.89071572929763 29.0694460591912 2.0
vertex 7.14953477440015 10.0353718854803 2.0
vertex 7.14953477440015 29.1035202329022 2.0
endloop
endfacet
facet normal 0.0 0.0 1.0
outer loop
vertex 7.14953477440015 29.1035202329022 2.0
vertex 7.14953477440015 10.0353718854803 2.0
vertex 7.39071572929763 29.2034206554068 2.0
endloop
endfacet
facet normal 0.0 0.0 1.0
outer loop
vertex 7.39071572929763 29.2034206554068 2.0
vertex 7.14953477440015 10.0353718854803 2.0
vertex 7.39071572929763 9.93547146297568 2.0
endloop
endfacet
facet normal 0.0 0.0 1.0
outer loop
vertex 7.39071572929763 29.2034206554068 2.0
vertex 7.39071572929763 9.93547146297568 2.0
vertex 7.59782251048418 29.3623392780047 2.0
endloop
endfacet
facet normal 0.0 0.0 1.0
outer loop
vertex 7.59782251048418 29.3623392780047 2.0
vertex 7.39071572929763 9.93547146297568 2.0
vertex 7.59782251048418 9.77655284037778 2.0
endloop
endfacet
facet normal 0.0 0.0 1.0
outer loop
vertex 7.59782251048418 29.3623392780047 2.0
vertex 7.59782251048418 9.77655284037778 2.0
vertex 7.75674113308207 29.5694460591912 2.0
endloop
endfacet
facet normal 0.0 0.0 1.0
outer loop
vertex 7.75674113308207 29.5694460591912 2.0
vertex 7.59782251048418 9.77655284037778 2.0
vertex 7.75674113308207 9.56944605919124 2.0
endloop
endfacet
facet normal 0.0 0.0 1.0
outer loop
vertex 7.75674113308207 29.5694460591912 2.0
vertex 7.75674113308207 9.56944605919124 2.0
vertex 7.8566415555867 29.8106270140887 2.0
endloop
endfacet
facet normal 0.0 0.0 1.0
outer loop
vertex 7.8566415555867 29.8106270140887 2.0
vertex 7.75674113308207 9.56944605919124 2.0
vertex 7.8566415555867 9.32826510429376 2.0
endloop
endfacet
facet normal 0.0 0.0 1.0
outer loop
vertex 7.8566415555867 29.8106270140887 2.0
vertex 7.8566415555867 9.32826510429376 2.0
vertex 7.89071572929763 30.0694460591912 2.0
endloop
endfacet
facet normal 0.0 0.0 1.0
outer loop
vertex 7.89071572929763 30.0694460591912 2.0
vertex 7.8566415555867 9.32826510429376 2.0
vertex 7.89071572929763 9.06944605919124 2.0
endloop
endfacet
facet normal 0.0 0.0 1.0
outer loop
vertex 22.9247899030086 9.32826510429376 2.0
vertex 22.8907157292976 30.0694460591912 2.0
vertex 22.8907157292976 9.06944605919124 2.0
endloop
endfacet
facet normal 0.0 0.0 1.0
outer loop
vertex 22.8907157292976 30.0694460591912 2.0
vertex 22.9247899030086 9.32826510429376 2.0
vertex 22.9247899030086 29.8106270140887 2.0
endloop
endfacet
facet normal 0.0 0.0 1.0
outer loop
vertex 22.9247899030086 29.8106270140887 2.0
vertex 22.9247899030086 9.32826510429376 2.0
vertex 23.0246903255132 9.56944605919124 2.0
endloop
endfacet
facet normal 0.0 0.0 1.0
outer loop
vertex 22.9247899030086 29.8106270140887 2.0
vertex 23.0246903255132 9.56944605919124 2.0
vertex 23.0246903255132 29.5694460591912 2.0
endloop
endfacet
facet normal 0.0 0.0 1.0
outer loop
vertex 23.0246903255132 29.5694460591912 2.0
vertex 23.0246903255132 9.56944605919124 2.0
vertex 23.1836089481111 9.77655284037779 2.0
endloop
endfacet
facet normal 0.0 0.0 1.0
outer loop
vertex 23.0246903255132 29.5694460591912 2.0
vertex 23.1836089481111 9.77655284037779 2.0
vertex 23.1836089481111 29.3623392780047 2.0
endloop
endfacet
facet normal 0.0 0.0 1.0
outer loop
vertex 23.1836089481111 29.3623392780047 2.0
vertex 23.1836089481111 9.77655284037779 2.0
vertex 23.3907157292976 9.93547146297568 2.0
endloop
endfacet
facet normal 0.0 0.0 1.0
outer loop
vertex 23.1836089481111 29.3623392780047 2.0
vertex 23.3907157292976 9.93547146297568 2.0
vertex 23.3907157292976 29.2034206554068 2.0
endloop
endfacet
facet normal 0.0 0.0 1.0
outer loop
vertex 23.3907157292976 29.2034206554068 2.0
vertex 23.3907157292976 9.93547146297568 2.0
vertex 23.6318966841951 10.0353718854803 2.0
endloop
endfacet
facet normal 0.0 0.0 1.0
outer loop
vertex 23.3907157292976 29.2034206554068 2.0
vertex 23.6318966841951 10.0353718854803 2.0
vertex 23.6318966841951 29.1035202329022 2.0
endloop
endfacet
facet normal 0.0 0.0 1.0
outer loop
vertex 23.6318966841951 29.1035202329022 2.0
vertex 23.6318966841951 10.0353718854803 2.0
vertex 23.8907157292976 10.0694460591912 2.0
endloop
endfacet
facet normal 0.0 0.0 1.0
outer loop
vertex 23.6318966841951 29.1035202329022 2.0
vertex 23.8907157292976 10.0694460591912 2.0
vertex 23.8907157292976 29.0694460591912 2.0
endloop
endfacet
facet normal 0.0 0.0 1.0
outer loop
vertex 23.8907157292976 29.0694460591912 2.0
vertex 23.8907157292976 10.0694460591912 2.0
vertex 24.1495347744002 10.0353718854803 2.0
endloop
endfacet
facet normal 0.0 0.0 1.0
outer loop
vertex 23.8907157292976 29.0694460591912 2.0
vertex 24.1495347744002 10.0353718854803 2.0
vertex 24.1495347744002 29.1035202329022 2.0
endloop
endfacet
facet normal 0.0 0.0 1.0
outer loop
vertex 24.1495347744002 29.1035202329022 2.0
vertex 24.1495347744002 10.0353718854803 2.0
vertex 24.3907157292976 29.2034206554068 2.0
endloop
endfacet
facet normal 0.0 0.0 1.0
outer loop
vertex 24.3907157292976 29.2034206554068 2.0
vertex 24.1495347744002 10.0353718854803 2.0
vertex 24.3907157292976 9.93547146297568 2.0
endloop
endfacet
facet normal 0.0 0.0 1.0
outer loop
vertex 24.3907157292976 29.2034206554068 2.0
vertex 24.3907157292976 9.93547146297568 2.0
vertex 24.5978225104842 29.3623392780047 2.0
endloop
endfacet
facet normal 0.0 0.0 1.0
outer loop
vertex 24.5978225104842 29.3623392780047 2.0
vertex 24.3907157292976 9.93547146297568 2.0
vertex 24.5978225104842 9.77655284037779 2.0
endloop
endfacet
facet normal 0.0 0.0 1.0
outer loop
vertex 24.5978225104842 29.3623392780047 2.0
vertex 24.5978225104842 9.77655284037779 2.0
vertex 24.7567411330821 29.5694460591912 2.0
endloop
endfacet
facet normal 0.0 0.0 1.0
outer loop
vertex 24.7567411330821 29.5694460591912 2.0
vertex 24.5978225104842 9.77655284037779 2.0
vertex 24.7567411330821 9.56944605919124 2.0
endloop
endfacet
facet normal 0.0 0.0 1.0
outer loop
vertex 24.7567411330821 29.5694460591912 2.0
vertex 24.7567411330821 9.56944605919124 2.0
vertex 24.8566415555867 29.8106270140887 2.0
endloop
endfacet
facet normal 0.0 0.0 1.0
outer loop
vertex 24.8566415555867 29.8106270140887 2.0
vertex 24.7567411330821 9.56944605919124 2.0
vertex 24.8566415555867 9.32826510429376 2.0
endloop
endfacet
facet normal 0.0 0.0 1.0
outer loop
vertex 24.8566415555867 29.8106270140887 2.0
vertex 24.8566415555867 9.32826510429376 2.0
vertex 24.8907157292976 30.0694460591912 2.0
endloop
endfacet
facet normal 0.0 0.0 1.0
outer loop
vertex 24.8907157292976 30.0694460591912 2.0
vertex 24.8566415555867 9.32826510429376 2.0
vertex 24.8907157292976 9.06944605919124 2.0
endloop
endfacet
facet normal 0.0 0.0 1.0
outer loop
vertex 3.97597174209654 3.71360391383704 2.0
vertex 5.89071572929763 9.06944605919124 2.0
vertex 3.97597174209654 36.122277104173 2.0
endloop
endfacet
facet normal 0.0 0.0 1.0
outer loop
vertex 5.89071572929763 9.06944605919124 2.0
vertex 3.97597174209654 3.71360391383704 2.0
vertex 5.92478990300856 8.81062701408872 2.0
endloop
endfacet
facet normal 0.0 0.0 1.0
outer loop
vertex 5.92478990300856 8.81062701408872 2.0
vertex 3.97597174209654 3.71360391383704 2.0
vertex 6.02469032551319 8.56944605919124 2.0
endloop
endfacet
facet normal 0.0 0.0 1.0
outer loop
vertex 6.02469032551319 8.56944605919124 2.0
vertex 3.97597174209654 3.71360391383704 2.0
vertex 6.18360894811108 8.36233927800469 2.0
endloop
endfacet
facet normal 0.0 0.0 1.0
outer loop
vertex 6.18360894811108 8.36233927800469 2.0
vertex 3.97597174209654 3.71360391383704 2.0
vertex 6.39071572929763 8.2034206554068 2.0
endloop
endfacet
facet normal 0.0 0.0 1.0
outer loop
vertex 6.39071572929763 8.2034206554068 2.0
vertex 3.97597174209654 3.71360391383704 2.0
vertex 6.63189668419511 8.10352023290217 2.0
endloop
endfacet
facet normal 0.0 0.0 1.0
outer loop
vertex 6.63189668419511 8.10352023290217 2.0
vertex 3.97597174209654 3.71360391383704 2.0
vertex 26.2759717420965 3.71360391383704 2.0
endloop
endfacet
facet normal 0.0 0.0 1.0
outer loop
vertex 6.63189668419511 8.10352023290217 2.0
vertex 26.2759717420965 3.71360391383704 2.0
vertex 6.89071572929763 8.06944605919124 2.0
endloop
endfacet
facet normal 0.0 0.0 1.0
outer loop
vertex 6.89071572929763 8.06944605919124 2.0
vertex 26.2759717420965 3.71360391383704 2.0
vertex 7.14953477440015 8.10352023290217 2.0
endloop
endfacet
facet normal 0.0 0.0 1.0
outer loop
vertex 7.14953477440015 8.10352023290217 2.0
vertex 26.2759717420965 3.71360391383704 2.0
vertex 7.39071572929763 8.2034206554068 2.0
endloop
endfacet
facet normal 0.0 0.0 1.0
outer loop
vertex 7.39071572929763 8.2034206554068 2.0
vertex 26.2759717420965 3.71360391383704 2.0
vertex 7.59782251048418 8.36233927800469 2.0
endloop
endfacet
facet normal 0.0 0.0 1.0
outer loop
vertex 7.59782251048418 8.36233927800469 2.0
vertex 26.2759717420965 3.71360391383704 2.0
vertex 7.75674113308207 8.56944605919124 2.0
endloop
endfacet
facet normal 0.0 0.0 1.0
outer loop
vertex 7.75674113308207 8.56944605919124 2.0
vertex 26.2759717420965 3.71360391383704 2.0
vertex 7.8566415555867 8.81062701408872 2.0
endloop
endfacet
facet normal 0.0 0.0 1.0
outer loop
vertex 7.8566415555867 8.81062701408872 2.0
vertex 26.2759717420965 3.71360391383704 2.0
vertex 7.89071572929763 9.06944605919124 2.0
endloop
endfacet
facet normal 0.0 0.0 1.0
outer loop
vertex 7.89071572929763 9.06944605919124 2.0
vertex 26.2759717420965 3.71360391383704 2.0
vertex 23.0246903255132 8.56944605919124 2.0
endloop
endfacet
facet normal 0.0 0.0 1.0
outer loop
vertex 7.89071572929763 9.06944605919124 2.0
vertex 23.0246903255132 8.56944605919124 2.0
vertex 22.9247899030086 8.81062701408872 2.0
endloop
endfacet
facet normal 0.0 0.0 1.0
outer loop
vertex 7.89071572929763 9.06944605919124 2.0
vertex 22.9247899030086 8.81062701408872 2.0
vertex 22.8907157292976 9.06944605919124 2.0
endloop
endfacet
facet normal 0.0 0.0 1.0
outer loop
vertex 23.0246903255132 8.56944605919124 2.0
vertex 26.2759717420965 3.71360391383704 2.0
vertex 23.1836089481111 8.36233927800469 2.0
endloop
endfacet
facet normal 0.0 0.0 1.0
outer loop
vertex 23.1836089481111 8.36233927800469 2.0
vertex 26.2759717420965 3.71360391383704 2.0
vertex 23.3907157292976 8.2034206554068 2.0
endloop
endfacet
facet normal 0.0 0.0 1.0
outer loop
vertex 23.3907157292976 8.2034206554068 2.0
vertex 26.2759717420965 3.71360391383704 2.0
vertex 23.6318966841951 8.10352023290217 2.0
endloop
endfacet
facet normal 0.0 0.0 1.0
outer loop
vertex 23.6318966841951 8.10352023290217 2.0
vertex 26.2759717420965 3.71360391383704 2.0
vertex 23.8907157292976 8.06944605919124 2.0
endloop
endfacet
facet normal 0.0 0.0 1.0
outer loop
vertex 23.8907157292976 8.06944605919124 2.0
vertex 26.2759717420965 3.71360391383704 2.0
vertex 24.1495347744002 8.10352023290217 2.0
endloop
endfacet
facet normal 0.0 0.0 1.0
outer loop
vertex 24.1495347744002 8.10352023290217 2.0
vertex 26.2759717420965 3.71360391383704 2.0
vertex 24.3907157292976 8.2034206554068 2.0
endloop
endfacet
facet normal 0.0 0.0 1.0
outer loop
vertex 24.3907157292976 8.2034206554068 2.0
vertex 26.2759717420965 3.71360391383704 2.0
vertex 24.5978225104842 8.36233927800469 2.0
endloop
endfacet
facet normal 0.0 0.0 1.0
outer loop
vertex 24.5978225104842 8.36233927800469 2.0
vertex 26.2759717420965 3.71360391383704 2.0
vertex 24.7567411330821 8.56944605919124 2.0
endloop
endfacet
facet normal 0.0 0.0 1.0
outer loop
vertex 24.7567411330821 8.56944605919124 2.0
vertex 26.2759717420965 3.71360391383704 2.0
vertex 24.8566415555867 8.81062701408872 2.0
endloop
endfacet
facet normal 0.0 0.0 1.0
outer loop
vertex 24.8566415555867 8.81062701408872 2.0
vertex 26.2759717420965 3.71360391383704 2.0
vertex 24.8907157292976 9.06944605919124 2.0
endloop
endfacet
facet normal 0.0 0.0 1.0
outer loop
vertex 0.0 0.0 2.0
vertex 3.97597174209654 1.31360391383704 2.0
vertex 0.0 40.0 2.0
endloop
endfacet
facet normal 0.0 0.0 1.0
outer loop
vertex 3.97597174209654 1.31360391383704 2.0
vertex 0.0 0.0 2.0
vertex 30.0 0.0 2.0
endloop
endfacet
facet normal 0.0 0.0 1.0
outer loop
vertex 3.97597174209654 1.31360391383704 2.0
vertex 30.0 0.0 2.0
vertex 26.2759717420965 1.31360391383704 2.0
endloop
endfacet
facet normal 0.0 0.0 1.0
outer loop
vertex 26.2759717420965 1.31360391383704 2.0
vertex 30.0 0.0 2.0
vertex 26.2759717420965 3.71360391383704 2.0
endloop
endfacet
facet normal 0.0 0.0 1.0
outer loop
vertex 26.2759717420965 3.71360391383704 2.0
vertex 30.0 0.0 2.0
vertex 26.2759717420965 36.122277104173 2.0
endloop
endfacet
facet normal 0.0 0.0 1.0
outer loop
vertex 26.2759717420965 36.122277104173 2.0
vertex 30.0 0.0 2.0
vertex 26.2759717420965 38.522277104173 2.0
endloop
endfacet
facet normal 0.0 0.0 1.0
outer loop
vertex 0.0 40.0 2.0
vertex 3.97597174209654 38.522277104173 2.0
vertex 30.0 40.0 2.0
endloop
endfacet
facet normal 0.0 0.0 1.0
outer loop
vertex 3.97597174209654 38.522277104173 2.0
vertex 0.0 40.0 2.0
vertex 3.97597174209654 1.31360391383704 2.0
endloop
endfacet
facet normal 0.0 0.0 1.0
outer loop
vertex 3.97597174209654 38.522277104173 2.0
vertex 3.97597174209654 1.31360391383704 2.0
vertex 3.97597174209654 3.71360391383704 2.0
endloop
endfacet
facet normal 0.0 0.0 1.0
outer loop
vertex 3.97597174209654 38.522277104173 2.0
vertex 3.97597174209654 3.71360391383704 2.0
vertex 3.97597174209654 36.122277104173 2.0
endloop
endfacet
facet normal 0.0 0.0 1.0
outer loop
vertex 30.0 40.0 2.0
vertex 3.97597174209654 38.522277104173 2.0
vertex 26.2759717420965 38.522277104173 2.0
endloop
endfacet
facet normal 0.0 0.0 1.0
outer loop
vertex 30.0 40.0 2.0
vertex 26.2759717420965 38.522277104173 2.0
vertex 30.0 0.0 2.0
endloop
endfacet
facet normal 0.0 0.0 1.0
outer loop
vertex 3.97597174209654 36.122277104173 2.0
vertex 6.63189668419511 31.0353718854803 2.0
vertex 26.2759717420965 36.122277104173 2.0
endloop
endfacet
facet normal 0.0 0.0 1.0
outer loop
vertex 6.63189668419511 31.0353718854803 2.0
vertex 3.97597174209654 36.122277104173 2.0
vertex 6.39071572929763 30.9354714629757 2.0
endloop
endfacet
facet normal 0.0 0.0 1.0
outer loop
vertex 6.39071572929763 30.9354714629757 2.0
vertex 3.97597174209654 36.122277104173 2.0
vertex 6.18360894811108 30.7765528403778 2.0
endloop
endfacet
facet normal 0.0 0.0 1.0
outer loop
vertex 6.18360894811108 30.7765528403778 2.0
vertex 3.97597174209654 36.122277104173 2.0
vertex 6.02469032551319 30.5694460591912 2.0
endloop
endfacet
facet normal 0.0 0.0 1.0
outer loop
vertex 6.02469032551319 30.5694460591912 2.0
vertex 3.97597174209654 36.122277104173 2.0
vertex 5.92478990300856 30.3282651042938 2.0
endloop
endfacet
facet normal 0.0 0.0 1.0
outer loop
vertex 5.92478990300856 30.3282651042938 2.0
vertex 3.97597174209654 36.122277104173 2.0
vertex 5.89071572929763 30.0694460591912 2.0
endloop
endfacet
facet normal 0.0 0.0 1.0
outer loop
vertex 5.89071572929763 30.0694460591912 2.0
vertex 3.97597174209654 36.122277104173 2.0
vertex 5.89071572929763 9.06944605919124 2.0
endloop
endfacet
facet normal 0.0 0.0 1.0
outer loop
vertex 26.2759717420965 36.122277104173 2.0
vertex 6.63189668419511 31.0353718854803 2.0
vertex 6.89071572929763 31.0694460591912 2.0
endloop
endfacet
facet normal 0.0 0.0 1.0
outer loop
vertex 26.2759717420965 36.122277104173 2.0
vertex 6.89071572929763 31.0694460591912 2.0
vertex 7.14953477440015 31.0353718854803 2.0
endloop
endfacet
facet normal 0.0 0.0 1.0
outer loop
vertex 26.2759717420965 36.122277104173 2.0
vertex 7.14953477440015 31.0353718854803 2.0
vertex 7.39071572929763 30.9354714629757 2.0
endloop
endfacet
facet normal 0.0 0.0 1.0
outer loop
vertex 26.2759717420965 36.122277104173 2.0
vertex 7.39071572929763 30.9354714629757 2.0
vertex 7.59782251048418 30.7765528403778 2.0
endloop
endfacet
facet normal 0.0 0.0 1.0
outer loop
vertex 26.2759717420965 36.122277104173 2.0
vertex 7.59782251048418 30.7765528403778 2.0
vertex 7.75674113308207 30.5694460591912 2.0
endloop
endfacet
facet normal 0.0 0.0 1.0
outer loop
vertex 26.2759717420965 36.122277104173 2.0
vertex 7.75674113308207 30.5694460591912 2.0
vertex 7.8566415555867 30.3282651042938 2.0
endloop
endfacet
facet normal 0.0 0.0 1.0
outer loop
vertex 26.2759717420965 36.122277104173 2.0
vertex 7.8566415555867 30.3282651042938 2.0
vertex 7.89071572929763 30.0694460591912 2.0
endloop
endfacet
facet normal 0.0 0.0 1.0
outer loop
vertex 26.2759717420965 36.122277104173 2.0
vertex 7.89071572929763 30.0694460591912 2.0
vertex 7.89071572929763 9.06944605919124 2.0
endloop
endfacet
facet normal 0.0 0.0 1.0
outer loop
vertex 26.2759717420965 36.122277104173 2.0
vertex 7.89071572929763 9.06944605919124 2.0
vertex 23.0246903255132 30.5694460591912 2.0
endloop
endfacet
facet normal 0.0 0.0 1.0
outer loop
vertex 23.0246903255132 30.5694460591912 2.0
vertex 7.89071572929763 9.06944605919124 2.0
vertex 22.9247899030086 30.3282651042938 2.0
endloop
endfacet
facet normal 0.0 0.0 1.0
outer loop
vertex 22.9247899030086 30.3282651042938 2.0
vertex 7.89071572929763 9.06944605919124 2.0
vertex 22.8907157292976 30.0694460591912 2.0
endloop
endfacet
facet normal 0.0 0.0 1.0
outer loop
vertex 22.8907157292976 30.0694460591912 2.0
vertex 7.89071572929763 9.06944605919124 2.0
vertex 22.8907157292976 9.06944605919124 2.0
endloop
endfacet
facet normal 0.0 0.0 1.0
outer loop
vertex 26.2759717420965 36.122277104173 2.0
vertex 23.0246903255132 30.5694460591912 2.0
vertex 23.1836089481111 30.7765528403778 2.0
endloop
endfacet
facet normal 0.0 0.0 1.0
outer loop
vertex 26.2759717420965 36.122277104173 2.0
vertex 23.1836089481111 30.7765528403778 2.0
vertex 23.3907157292976 30.9354714629757 2.0
endloop
endfacet
facet normal 0.0 0.0 1.0
outer loop
vertex 26.2759717420965 36.122277104173 2.0
vertex 23.3907157292976 30.9354714629757 2.0
vertex 23.6318966841951 31.0353718854803 2.0
endloop
endfacet
facet normal 0.0 0.0 1.0
outer loop
vertex 26.2759717420965 36.122277104173 2.0
vertex 23.6318966841951 31.0353718854803 2.0
vertex 23.8907157292976 31.0694460591912 2.0
endloop
endfacet
facet normal 0.0 0.0 1.0
outer loop
vertex 26.2759717420965 36.122277104173 2.0
vertex 23.8907157292976 31.0694460591912 2.0
vertex 24.1495347744002 31.0353718854803 2.0
endloop
endfacet
facet normal 0.0 0.0 1.0
outer loop
vertex 26.2759717420965 36.122277104173 2.0
vertex 24.1495347744002 31.0353718854803 2.0
vertex 24.3907157292976 30.9354714629757 2.0
endloop
endfacet
facet normal 0.0 0.0 1.0
outer loop
vertex 26.2759717420965 36.122277104173 2.0
vertex 24.3907157292976 30.9354714629757 2.0
vertex 24.5978225104842 30.7765528403778 2.0
endloop
endfacet
facet normal 0.0 0.0 1.0
outer loop
vertex 26.2759717420965 36.122277104173 2.0
vertex 24.5978225104842 30.7765528403778 2.0
vertex 24.7567411330821 30.5694460591912 2.0
endloop
endfacet
facet normal 0.0 0.0 1.0
outer loop
vertex 26.2759717420965 36.122277104173 2.0
vertex 24.7567411330821 30.5694460591912 2.0
vertex 24.8566415555867 30.3282651042938 2.0
endloop
endfacet
facet normal 0.0 0.0 1.0
outer loop
vertex 26.2759717420965 36.122277104173 2.0
vertex 24.8566415555867 30.3282651042938 2.0
vertex 24.8907157292976 30.0694460591912 2.0
endloop
endfacet
facet normal 0.0 0.0 1.0
outer loop
vertex 26.2759717420965 36.122277104173 2.0
vertex 24.8907157292976 30.0694460591912 2.0
vertex 24.8907157292976 9.06944605919124 2.0
endloop
endfacet
facet normal 0.0 0.0 1.0
outer loop
vertex 26.2759717420965 36.122277104173 2.0
vertex 24.8907157292976 9.06944605919124 2.0
vertex 26.2759717420965 3.71360391383704 2.0
endloop
endfacet
facet normal 1.0 0.0 0.0
outer loop
vertex 30.0 40.0 0.0
vertex 30.0 0.0 2.0
vertex 30.0 0.0 0.0
endloop
endfacet
facet normal 1.0 0.0 0.0
outer loop
vertex 30.0 0.0 2.0
vertex 30.0 40.0 0.0
vertex 30.0 40.0 2.0
endloop
endfacet
facet normal 0.0 -1.0 0.0
outer loop
vertex 30.0 0.0 2.0
vertex 0.0 0.0 0.0
vertex 30.0 0.0 0.0
endloop
endfacet
facet normal 0.0 -1.0 0.0
outer loop
vertex 0.0 0.0 0.0
vertex 30.0 0.0 2.0
vertex 0.0 0.0 2.0
endloop
endfacet
facet normal -1.0 0.0 0.0
outer loop
vertex 0.0 40.0 2.0
vertex 0.0 0.0 0.0
vertex 0.0 0.0 2.0
endloop
endfacet
facet normal -1.0 0.0 0.0
outer loop
vertex 0.0 0.0 0.0
vertex 0.0 40.0 2.0
vertex 0.0 40.0 0.0
endloop
endfacet
facet normal 0.0 1.0 0.0
outer loop
vertex 0.0 40.0 2.0
vertex 30.0 40.0 0.0
vertex 0.0 40.0 0.0
endloop
endfacet
facet normal 0.0 1.0 0.0
outer loop
vertex 30.0 40.0 0.0
vertex 0.0 40.0 2.0
vertex 30.0 40.0 2.0
endloop
endfacet
facet normal -1.0 -1.39904425361656e-015 0.0
outer loop
vertex 7.89071572929763 30.0694460591912 2.0
vertex 7.8566415555867 29.8106270140887 0.0
vertex 7.8566415555867 29.8106270140887 2.0
endloop
endfacet
facet normal -0.965925826289068 0.258819045102523 0.0
outer loop
vertex 7.8566415555867 29.8106270140887 0.0
vertex 7.89071572929763 30.0694460591912 2.0
vertex 7.89071572929763 30.0694460591912 0.0
endloop
endfacet
facet normal -0.965925826289069 -0.258819045102518 0.0
outer loop
vertex 7.8566415555867 30.3282651042938 2.0
vertex 7.89071572929763 30.0694460591912 0.0
vertex 7.89071572929763 30.0694460591912 2.0
endloop
endfacet
facet normal -1.0 -1.39904425361656e-015 0.0
outer loop
vertex 7.89071572929763 30.0694460591912 0.0
vertex 7.8566415555867 30.3282651042938 2.0
vertex 7.8566415555867 30.3282651042938 0.0
endloop
endfacet
facet normal -0.70710678118655 -0.707106781186545 0.0
outer loop
vertex 7.59782251048418 30.7765528403778 2.0
vertex 7.39071572929763 30.9354714629757 0.0
vertex 7.59782251048418 30.7765528403778 0.0
endloop
endfacet
facet normal -0.500000000000003 -0.866025403784437 0.0
outer loop
vertex 7.39071572929763 30.9354714629757 0.0
vertex 7.59782251048418 30.7765528403778 2.0
vertex 7.39071572929763 30.9354714629757 2.0
endloop
endfacet
facet normal -0.500000000000003 -0.866025403784437 0.0
outer loop
vertex 7.39071572929763 30.9354714629757 2.0
vertex 7.14953477440015 31.0353718854803 0.0
vertex 7.39071572929763 30.9354714629757 0.0
endloop
endfacet
facet normal -0.258819045102518 -0.965925826289069 0.0
outer loop
vertex 7.14953477440015 31.0353718854803 0.0
vertex 7.39071572929763 30.9354714629757 2.0
vertex 7.14953477440015 31.0353718854803 2.0
endloop
endfacet
facet normal -0.258819045102518 -0.965925826289069 0.0
outer loop
vertex 7.14953477440015 31.0353718854803 2.0
vertex 6.89071572929763 31.0694460591912 0.0
vertex 7.14953477440015 31.0353718854803 0.0
endloop
endfacet
facet normal 3.65355505721523e-016 -1.0 0.0
outer loop
vertex 6.89071572929763 31.0694460591912 0.0
vertex 7.14953477440015 31.0353718854803 2.0
vertex 6.89071572929763 31.0694460591912 2.0
endloop
endfacet
facet normal 3.65355505721523e-016 -1.0 0.0
outer loop
vertex 6.89071572929763 31.0694460591912 2.0
vertex 6.63189668419511 31.0353718854803 0.0
vertex 6.89071572929763 31.0694460591912 0.0
endloop
endfacet
facet normal 0.258819045102517 -0.965925826289069 0.0
outer loop
vertex 6.63189668419511 31.0353718854803 0.0
vertex 6.89071572929763 31.0694460591912 2.0
vertex 6.63189668419511 31.0353718854803 2.0
endloop
endfacet
facet normal 0.258819045102517 -0.965925826289069 0.0
outer loop
vertex 6.63189668419511 31.0353718854803 2.0
vertex 6.39071572929763 30.9354714629757 0.0
vertex 6.63189668419511 31.0353718854803 0.0
endloop
endfacet
facet normal 0.500000000000002 -0.866025403784437 0.0
outer loop
vertex 6.39071572929763 30.9354714629757 0.0
vertex 6.63189668419511 31.0353718854803 2.0
vertex 6.39071572929763 30.9354714629757 2.0
endloop
endfacet
facet normal 0.500000000000002 -0.866025403784437 0.0
outer loop
vertex 6.39071572929763 30.9354714629757 2.0
vertex 6.18360894811108 30.7765528403778 0.0
vertex 6.39071572929763 30.9354714629757 0.0
endloop
endfacet
facet normal 0.70710678118655 -0.707106781186545 0.0
outer loop
vertex 6.18360894811108 30.7765528403778 0.0
vertex 6.39071572929763 30.9354714629757 2.0
vertex 6.18360894811108 30.7765528403778 2.0
endloop
endfacet
facet normal 0.70710678118655 -0.707106781186545 0.0
outer loop
vertex 6.18360894811108 30.7765528403778 0.0
vertex 6.02469032551319 30.5694460591912 2.0
vertex 6.02469032551319 30.5694460591912 0.0
endloop
endfacet
facet normal 0.866025403784437 -0.500000000000004 0.0
outer loop
vertex 6.02469032551319 30.5694460591912 2.0
vertex 6.18360894811108 30.7765528403778 0.0
vertex 6.18360894811108 30.7765528403778 2.0
endloop
endfacet
facet normal -0.965925826289068 0.258819045102521 0.0
outer loop
vertex 24.8566415555867 8.81062701408872 2.0
vertex 24.7567411330821 8.56944605919124 0.0
vertex 24.7567411330821 8.56944605919124 2.0
endloop
endfacet
facet normal -0.866025403784439 0.499999999999999 0.0
outer loop
vertex 24.7567411330821 8.56944605919124 0.0
vertex 24.8566415555867 8.81062701408872 2.0
vertex 24.8566415555867 8.81062701408872 0.0
endloop
endfacet
facet normal -0.258819045102522 0.965925826289068 0.0
outer loop
vertex 24.1495347744002 8.10352023290217 2.0
vertex 24.3907157292976 8.2034206554068 0.0
vertex 24.1495347744002 8.10352023290217 0.0
endloop
endfacet
facet normal -0.499999999999998 0.86602540378444 0.0
outer loop
vertex 24.3907157292976 8.2034206554068 0.0
vertex 24.1495347744002 8.10352023290217 2.0
vertex 24.3907157292976 8.2034206554068 2.0
endloop
endfacet
facet normal -0.499999999999998 0.86602540378444 0.0
outer loop
vertex 24.3907157292976 8.2034206554068 2.0
vertex 24.5978225104842 8.36233927800469 0.0
vertex 24.3907157292976 8.2034206554068 0.0
endloop
endfacet
facet normal -0.707106781186547 0.707106781186548 0.0
outer loop
vertex 24.5978225104842 8.36233927800469 0.0
vertex 24.3907157292976 8.2034206554068 2.0
vertex 24.5978225104842 8.36233927800469 2.0
endloop
endfacet
facet normal -0.866025403784439 0.499999999999999 0.0
outer loop
vertex 24.7567411330821 8.56944605919124 2.0
vertex 24.5978225104842 8.36233927800469 0.0
vertex 24.5978225104842 8.36233927800469 2.0
endloop
endfacet
facet normal -0.707106781186547 0.707106781186548 0.0
outer loop
vertex 24.5978225104842 8.36233927800469 0.0
vertex 24.7567411330821 8.56944605919124 2.0
vertex 24.7567411330821 8.56944605919124 0.0
endloop
endfacet
facet normal 0.0 1.0 0.0
outer loop
vertex 6.89071572929763 29.0694460591912 2.0
vertex 7.14953477440015 29.1035202329022 0.0
vertex 6.89071572929763 29.0694460591912 0.0
endloop
endfacet
facet normal -0.258819045102517 0.965925826289069 0.0
outer loop
vertex 7.14953477440015 29.1035202329022 0.0
vertex 6.89071572929763 29.0694460591912 2.0
vertex 7.14953477440015 29.1035202329022 2.0
endloop
endfacet
facet normal 0.70710678118655 0.707106781186545 0.0
outer loop
vertex 6.18360894811108 29.3623392780047 2.0
vertex 6.39071572929763 29.2034206554068 0.0
vertex 6.18360894811108 29.3623392780047 0.0
endloop
endfacet
facet normal 0.500000000000002 0.866025403784437 0.0
outer loop
vertex 6.39071572929763 29.2034206554068 0.0
vertex 6.18360894811108 29.3623392780047 2.0
vertex 6.39071572929763 29.2034206554068 2.0
endloop
endfacet
facet normal 0.500000000000002 0.866025403784437 0.0
outer loop
vertex 6.39071572929763 29.2034206554068 2.0
vertex 6.63189668419511 29.1035202329022 0.0
vertex 6.39071572929763 29.2034206554068 0.0
endloop
endfacet
facet normal 0.258819045102517 0.965925826289069 0.0
outer loop
vertex 6.63189668419511 29.1035202329022 0.0
vertex 6.39071572929763 29.2034206554068 2.0
vertex 6.63189668419511 29.1035202329022 2.0
endloop
endfacet
facet normal 0.258819045102517 0.965925826289069 0.0
outer loop
vertex 6.63189668419511 29.1035202329022 2.0
vertex 6.89071572929763 29.0694460591912 0.0
vertex 6.63189668419511 29.1035202329022 0.0
endloop
endfacet
facet normal 0.0 1.0 0.0
outer loop
vertex 6.89071572929763 29.0694460591912 0.0
vertex 6.63189668419511 29.1035202329022 2.0
vertex 6.89071572929763 29.0694460591912 2.0
endloop
endfacet
endsolid WatchPlate
